<?xml version="1.0" encoding="UTF-8" standalone="no"?>
<svg
   width="1.5in"
   height="1.5in"
   version="1.1"
   xml:space="preserve"
   id="svg155"
   sodipodi:docname="Alpine_Linux.svg"
   inkscape:version="1.1 (c68e22c387, 2021-05-23)"
   xmlns:inkscape="http://www.inkscape.org/namespaces/inkscape"
   xmlns:sodipodi="http://sodipodi.sourceforge.net/DTD/sodipodi-0.dtd"
   xmlns="http://www.w3.org/2000/svg"
   xmlns:svg="http://www.w3.org/2000/svg"
   xmlns:rdf="http://www.w3.org/1999/02/22-rdf-syntax-ns#"
   xmlns:cc="http://creativecommons.org/ns#"
   xmlns:dc="http://purl.org/dc/elements/1.1/"><defs
     id="defs159" /><sodipodi:namedview
     id="namedview157"
     pagecolor="#505050"
     bordercolor="#eeeeee"
     borderopacity="1"
     inkscape:pageshadow="0"
     inkscape:pageopacity="0"
     inkscape:pagecheckerboard="0"
     showgrid="false"
     inkscape:zoom="2.5669173"
     inkscape:cx="-19.673404"
     inkscape:cy="90.965143"
     inkscape:window-width="1920"
     inkscape:window-height="1009"
     inkscape:window-x="-8"
     inkscape:window-y="-8"
     inkscape:window-maximized="1"
     inkscape:current-layer="svg155"
     units="in"
     inkscape:snap-path-clip="true"
     inkscape:snap-path-mask="true"
     guidetolerance="10000"
     inkscape:snap-perpendicular="true"
     inkscape:snap-tangential="true"
     objecttolerance="10000"
     inkscape:document-units="in" /><title
     id="title85">Alpine Linux logo</title><metadata
     id="metadata87"><rdf:RDF><cc:Work
         rdf:about=""><dc:format>image/svg+xml</dc:format><dc:type
           rdf:resource="http://purl.org/dc/dcmitype/StillImage" /><dc:title>Alpine Linux logo</dc:title></cc:Work></rdf:RDF></metadata><g
     transform="matrix(0.96743578,0,0,-0.96743578,52.177241,87.234211)"
     style="fill:#FFFFFF"
     id="g127"><path
       d="M 0,0 V 15.7 L -11.3,4.4 c 1.22,-0.847 2.36,-1.54 3.44,-2.11 1.08,-0.567 2.09,-1 3.03,-1.34 C -3.889,0.616 -3.02,0.388 -2.21,0.24 -1.406,0.093 -0.67,0.027 0,0.018 m 57.8,1.3 c 0.02,-0.017 0.13,-0.11 0.333,-0.239 0.204,-0.13 0.502,-0.297 0.898,-0.462 0.395,-0.164 0.889,-0.327 1.48,-0.448 0.596,-0.122 1.29,-0.202 2.1,-0.202 0.671,0 1.41,0.059 2.22,0.2 0.812,0.142 1.69,0.367 2.64,0.699 0.953,0.333 1.98,0.773 3.07,1.34 1.09,0.572 2.26,1.28 3.5,2.14 l -8.57,8.4 -28.4,28.5 -12.5,-12.5 -16.8,17.3 -42.2,-41.7 c 1.24,-0.86 2.4,-1.56 3.49,-2.14 1.09,-0.571 2.12,-1.01 3.07,-1.34 0.951,-0.332 1.83,-0.557 2.64,-0.698 0.81,-0.142 1.55,-0.201 2.22,-0.201 0.804,0 1.5,0.08 2.1,0.202 0.596,0.121 1.09,0.284 1.48,0.449 0.396,0.164 0.693,0.331 0.897,0.461 0.204,0.13 0.314,0.223 0.334,0.24 l 19.1,19.1 6.81,6.53 18.9,-18.9 6.59,-6.78 c 0.02,-0.017 0.13,-0.11 0.334,-0.239 0.204,-0.13 0.501,-0.297 0.897,-0.462 0.396,-0.164 0.89,-0.327 1.48,-0.448 0.596,-0.122 1.3,-0.202 2.1,-0.202 0.67,0 1.41,0.059 2.22,0.2 0.811,0.142 1.69,0.367 2.64,0.699 0.952,0.333 1.98,0.773 3.07,1.34 1.09,0.572 2.26,1.28 3.5,2.14 l -15.1,14.8 2.82,2.82 13.1,-13.1 7.64,-7.57 m -0.163,79 37.2,-64.5 -37.2,-64.5 h -74.5 l -37.2,64.5 37.2,64.5 z"
       style="fill:#FFFFFF"
       id="path125" /></g><g
     transform="matrix(1.25,0,0,-1.25,111.2,76.55875)"
     style="fill:#FFFFFF"
     id="g131"><path
       d="m 0,0 -9.91,9.9 0.705,0.709 9.98,-9.87 z"
       style="fill:#FFFFFF"
       id="path129" /></g></svg>
