<?xml version="1.0" encoding="UTF-8" standalone="no"?>
<svg
   width="2.75in"
   height="1in"
   viewBox="0 0 264 96"
   version="1.1"
   xml:space="preserve"
   style="clip-rule:evenodd;fill-rule:evenodd;stroke-linejoin:round;stroke-miterlimit:2"
   id="svg50"
   sodipodi:docname="ArduPilot_Logo.svg"
   inkscape:version="1.1 (c68e22c387, 2021-05-23)"
   inkscape:export-filename="X:\Downloads\ArduPilot_Logo.png"
   inkscape:export-xdpi="2400"
   inkscape:export-ydpi="2400"
   xmlns:inkscape="http://www.inkscape.org/namespaces/inkscape"
   xmlns:sodipodi="http://sodipodi.sourceforge.net/DTD/sodipodi-0.dtd"
   xmlns="http://www.w3.org/2000/svg"
   xmlns:svg="http://www.w3.org/2000/svg"><sodipodi:namedview
   id="namedview185"
   pagecolor="#ffffff"
   bordercolor="#666666"
   borderopacity="1.0"
   inkscape:pageshadow="2"
   inkscape:pageopacity="0.0"
   inkscape:pagecheckerboard="0"
   showgrid="false"
   units="in"
   inkscape:zoom="2.1681611"
   inkscape:cx="94.780782"
   inkscape:cy="29.287492"
   inkscape:window-width="1920"
   inkscape:window-height="1009"
   inkscape:window-x="-8"
   inkscape:window-y="-8"
   inkscape:window-maximized="1"
   inkscape:current-layer="svg50"
   inkscape:document-units="in" /><defs
   id="defs54">
        
        
        
        
        
        
        
        
        
        
    </defs>
    <g
   id="g1284"
   transform="translate(-0.06240413,1.0275318)"><g
     transform="matrix(0.12268647,0.24432269,0.09421156,-0.31816786,237.17026,252.61751)"
     id="g43">
            <path
   d="m -152.898,420.819 h 48.164 l -1164.516,-894.237 5.44,41.162 z"
   style="fill:#FFFFFF;fill-rule:nonzero"
   id="path41" />
        </g><g
     id="g1253"
     transform="matrix(0.64441494,0,0,0.64441494,7.9518825e-4,0.28349564)"><g
       transform="matrix(0.62250844,0,0,0.62250844,274.83418,108.91515)"
       id="g11">
            <path
   d="m 0,-155.064 c -13.821,-12.269 -30.748,-18.403 -50.799,-18.403 h -50.79 l -52.549,52.729 V 18.403 h 52.549 v -142.53 h 36.779 c 8.761,0 14.886,2.257 18.395,6.77 3.887,4.504 5.834,10.492 5.834,17.948 0,0.635 -0.111,1.209 -0.154,1.827 -0.369,5.439 -2.299,10.064 -5.972,13.762 -4.092,4.118 -10.029,6.177 -17.811,6.177 l -23.645,0.291 v 46.707 h 38.832 c 18.875,0 35.269,-6.812 49.185,-20.437 13.556,-13.289 20.462,-29.178 20.805,-47.632 0.009,-0.489 0.07,-0.953 0.07,-1.442 0,-24.34 -6.916,-42.639 -20.729,-54.908"
   style="fill:#FFFFFF;fill-rule:nonzero"
   id="path9" />
        </g><g
       transform="matrix(0.62250844,0,0,0.62250844,142.99616,144.10618)"
       id="g39">
            <path
   d="m 0,-229.955 -121.786,122.163 -7.241,7.258 L -229.706,0 h 62.527 l 116.243,-116.44 43.935,-44.038 v 50.79 h -35.828 l -47.006,46.714 h 82.834 v 24.812 h 52.549 v -191.793 z"
   style="fill:#FFFFFF;fill-rule:nonzero"
   id="path37" />
        </g><g
       transform="matrix(0.62250844,0,0,0.62250844,349.67256,41.670547)"
       id="g47">
            <path
   d="m 0,60.99 c -16.541,0 -29.959,-13.417 -29.959,-29.967 0,-16.541 13.418,-29.96 29.959,-29.96 16.55,0 29.968,13.419 29.968,29.96 C 29.968,47.573 16.55,60.99 0,60.99 m -14.542,65.643 c -46.493,-7.027 -82.14,-47.162 -82.14,-95.601 0,-53.391 43.301,-96.691 96.682,-96.691 53.39,0 96.69,43.3 96.69,96.691 0,48.499 -35.733,88.659 -82.294,95.617 V 89.338 c 26.21,-6.452 45.66,-30.115 45.66,-58.315 0,-33.151 -26.888,-60.04 -60.056,-60.04 -33.16,0 -60.039,26.889 -60.039,60.04 0,28.149 19.363,51.768 45.497,58.271 z"
   style="fill:#FFFFFF"
   id="path45" />
        </g></g></g>
</svg>
