<?xml version="1.0" encoding="UTF-8" standalone="no"?>
<!-- Created with Inkscape (http://www.inkscape.org/) -->

<svg
   version="1.1"
   width="1.5in"
   height="1.5in"
   id="svg7384"
   inkscape:version="1.1 (c68e22c387, 2021-05-23)"
   sodipodi:docname="gnome_builder_symbolic.svg"
   xmlns:inkscape="http://www.inkscape.org/namespaces/inkscape"
   xmlns:sodipodi="http://sodipodi.sourceforge.net/DTD/sodipodi-0.dtd"
   xmlns="http://www.w3.org/2000/svg"
   xmlns:svg="http://www.w3.org/2000/svg"
   xmlns:rdf="http://www.w3.org/1999/02/22-rdf-syntax-ns#"
   xmlns:cc="http://creativecommons.org/ns#"
   xmlns:dc="http://purl.org/dc/elements/1.1/">
  <metadata
     id="metadata90">
    <rdf:RDF>
      <cc:Work
         rdf:about="">
        <dc:format>image/svg+xml</dc:format>
        <dc:type
           rdf:resource="http://purl.org/dc/dcmitype/StillImage" />
        <dc:title>Gnome Symbolic Icon Theme</dc:title>
      </cc:Work>
    </rdf:RDF>
  </metadata>
  <sodipodi:namedview
     pagecolor="#e3e3e3"
     bordercolor="#666666"
     borderopacity="1"
     objecttolerance="10"
     gridtolerance="10"
     guidetolerance="10"
     inkscape:pageopacity="1"
     inkscape:pageshadow="2"
     inkscape:window-width="1356"
     inkscape:window-height="734"
     id="namedview88"
     showgrid="false"
     inkscape:zoom="3.5639469"
     inkscape:cx="68.74401"
     inkscape:cy="69.164892"
     inkscape:window-x="0"
     inkscape:window-y="0"
     inkscape:window-maximized="1"
     inkscape:current-layer="layer3"
     showborder="true"
     inkscape:snap-nodes="true"
     inkscape:snap-bbox="true"
     inkscape:bbox-paths="true"
     showguides="true"
     inkscape:guide-bbox="true"
     inkscape:snap-to-guides="true"
     inkscape:snap-grids="true"
     inkscape:snap-global="true"
     inkscape:object-nodes="true"
     inkscape:snap-bbox-midpoints="true"
     inkscape:object-paths="true"
     inkscape:snap-others="false"
     inkscape:bbox-nodes="true"
     inkscape:snap-intersection-paths="true"
     inkscape:showpageshadow="true"
     borderlayer="true"
     inkscape:pagecheckerboard="true"
     units="in"
     width="1.5in"
     inkscape:document-units="in">
    <inkscape:grid
       type="xygrid"
       id="grid4866"
       empspacing="2"
       visible="true"
       enabled="true"
       snapvisiblegridlinesonly="true"
       spacingx="1"
       spacingy="1"
       originx="0"
       originy="0" />
    <inkscape:grid
       type="xygrid"
       id="grid1321"
       empspacing="4"
       spacingx="0.5"
       spacingy="0.5"
       color="#000000"
       opacity="0.0627451"
       empcolor="#000000"
       empopacity="0.09411765" />
  </sodipodi:namedview>
  <title
     id="title9167">Gnome Symbolic Icon Theme</title>
  <defs
     id="defs7386" />
  <g
     inkscape:groupmode="layer"
     id="layer3"
     inkscape:label="apps">
    <g
       id="g1512"
       inkscape:label="org.gnome.Builder"
       transform="matrix(9.0248592,0,0,9.0248592,-0.19881244,1082.7557)">
      <rect
         y="-119.99683"
         x="-6.7773435e-06"
         height="16"
         width="16"
         id="rect1475"
         style="fill:none" />
      <path
         style="color:#FFFFFF;clip-rule:nonzero;display:inline;overflow:visible;visibility:visible;opacity:1;isolation:auto;mix-blend-mode:normal;color-interpolation:sRGB;color-interpolation-filters:linearRGB;solid-color:#000000;solid-opacity:1;fill:#FFFFFF;fill-opacity:1;fill-rule:nonzero;stroke:none;stroke-width:1;stroke-linecap:butt;stroke-linejoin:miter;stroke-miterlimit:4;stroke-dasharray:none;stroke-dashoffset:0;stroke-opacity:1;marker:none;marker-start:none;marker-mid:none;marker-end:none;paint-order:normal;color-rendering:auto;image-rendering:auto;shape-rendering:auto;text-rendering:auto;enable-background:accumulate"
         sodipodi:nodetypes="ccccccccccc"
         id="rect27311"
         d="M 1.09047,-106.77903 2,-107 l 1.43279,-1.41828 c 0.35417,0.15628 1.61431,0.16764 1.96848,0 L 6.96664,-107 l 0.77551,0.22097 0.19887,0.23347 V -105 H 0.93579002 v -1.52346 z"
         inkscape:connector-curvature="0" />
      <path
         id="path27313"
         d="m 7.53479,-118.00977 a 1.5277282,1.5277282 0 0 0 -1.5273438,1.52735 1.5277282,1.5277282 0 0 0 0.1210938,0.59375 l -1.4980469,1.82226 a 2.5,2.5 0 0 0 -0.1894531,-0.01 2.5,2.5 0 0 0 -2.5,2.5 2.5,2.5 0 0 0 2.5,2.5 2.5,2.5 0 0 0 2.5,-2.5 2.5,2.5 0 0 0 -0.2929688,-1.17382 l 0.8769532,-2.20508 a 1.5277282,1.5277282 0 0 0 0.00977,0 1.5277282,1.5277282 0 0 0 1.3554644,-0.82617 l 1.9511722,0.44922 a 1.5277282,1.5277282 0 0 0 1.509765,1.30469 1.5277282,1.5277282 0 0 0 1.529297,-1.52735 1.5277282,1.5277282 0 0 0 -1.529297,-1.52734 1.5277282,1.5277282 0 0 0 -1.367187,0.85156 l -1.9414065,-0.49609 A 1.5277282,1.5277282 0 0 0 7.53479,-118.01 Z"
         style="color:#FFFFFF;clip-rule:nonzero;display:inline;overflow:visible;visibility:visible;opacity:1;isolation:auto;mix-blend-mode:normal;color-interpolation:sRGB;color-interpolation-filters:linearRGB;solid-color:#000000;solid-opacity:1;fill:#FFFFFF;fill-opacity:1;fill-rule:nonzero;stroke:none;stroke-width:1;stroke-linecap:butt;stroke-linejoin:miter;stroke-miterlimit:4;stroke-dasharray:none;stroke-dashoffset:0;stroke-opacity:1;marker:none;marker-start:none;marker-mid:none;marker-end:none;paint-order:normal;color-rendering:auto;image-rendering:auto;shape-rendering:auto;text-rendering:auto;enable-background:accumulate"
         inkscape:connector-curvature="0" />
      <path
         style="color:#FFFFFF;clip-rule:nonzero;display:inline;overflow:visible;visibility:visible;opacity:1;isolation:auto;mix-blend-mode:normal;color-interpolation:sRGB;color-interpolation-filters:linearRGB;solid-color:#000000;solid-opacity:1;fill:#FFFFFF;fill-opacity:1;fill-rule:nonzero;stroke:none;stroke-width:1;stroke-linecap:butt;stroke-linejoin:miter;stroke-miterlimit:4;stroke-dasharray:none;stroke-dashoffset:0;stroke-opacity:1;marker:none;marker-start:none;marker-mid:none;marker-end:none;paint-order:normal;color-rendering:auto;image-rendering:auto;shape-rendering:auto;text-rendering:auto;enable-background:accumulate"
         sodipodi:nodetypes="ccccccccccccccccc"
         id="path27321"
         d="m 10.94102,-112.00001 -1.06629,1.91069 0.77903,2.08931 h 0.53125 l -0.24399,-2.46875 1.21875,-0.1875 0.21496,1.69887 0.57544,-0.004 0.2096,-1.66383 0.9375,0.0937 0.0937,2.5 0.5625,0.0312 0.59375,-2.5625 -1.39553,-1.21875 v -1.22855 h -2.94822 z"
         inkscape:connector-curvature="0" />
    </g>
  </g>
</svg>
