<?xml version="1.0" encoding="UTF-8" standalone="yes"?>
<!-- Created with sK1/UniConvertor (http://sk1project.org/) -->
<svg xmlns="http://www.w3.org/2000/svg" xmlns:xlink="http://www.w3.org/1999/xlink"
  width="120.8pt" height="48.8pt" viewBox="0 0 120.8 48.8"
  fill-rule="evenodd">
<g>
<path style="stroke:none; fill:#ffffff" d="M 0 0L 0 47.2L 0.8 47.2C 5.80187 31.8539 15.211 15.9502 17.6 0L 0 0z"/>
<path style="stroke:none; fill:#cdcdc9" d="M 17.6 0L 18.4 0.799999L 17.6 0z"/>
<path style="stroke:none; fill:#999999" d="M 18.4 0L 18.4 0.799999L 27.2 0.799999C 24.4541 -0.352245 21.3602 0 18.4 0z"/>
<path style="stroke:none; fill:#ffffff" d="M 27.2 0L 40.4611 35.2C 41.783 38.7047 42.9516 45.7112 46.1191 47.9778C 49.3152 50.2648 57.0138 48.8 60.8 48.8L 99.2 48.8L 99.2 48C 91.1064 46.7824 85.1848 41.0961 84.8 32.8L 95.2 32.8C 95.7136 42.1539 111.469 42.269 110.098 34.4339C 109.495 30.9846 105.244 29.5979 102.4 28.5562C 94.4136 25.6308 80.7176 18.5094 87.7624 8.00312C 88.8864 6.32676 90.3704 4.88804 92.0032 3.71049C 94.2152 2.11449 96.5544 1.27187 99.2 0.799999C 93.0888 -1.7645 83.4168 0 76.8 0L 27.2 0z"/>
<path style="stroke:none; fill:#cdcdc9" d="M 99.2 0L 99.2 0.799999L 101.6 0.799999C 100.602 0.252163 100.362 0.200962 99.2 0z"/>
<path style="stroke:none; fill:#999999" d="M 101.6 0L 101.6 0.799999L 104.8 0.799999C 103.595 0.253567 102.948 0.139286 101.6 0z"/>
<path style="stroke:none; fill:#cdcdc9" d="M 104.8 0L 104.8 0.799999L 107.2 0.799999C 106.202 0.252159 105.962 0.200966 104.8 0z"/>
<path style="stroke:none; fill:#ffffff" d="M 107.2 0L 107.2 0.799999C 113.158 1.8626 117.805 5.53457 120 11.2L 120.8 11.2L 120.8 0L 107.2 0z"/>
<path style="stroke:none; fill:#73736f" d="M 17.6 0.799999L 18.4 1.6L 17.6 0.799999z"/>
<path style="stroke:none; fill:#33332f" d="M 0.8 48C 3.51938 48 7.56862 48.7402 10.0648 47.5173C 13.23 45.9666 12.4236 41.1011 15.4222 39.2222C 23.7957 33.9754 32.5445 39.9834 34.4 48L 44.8 48C 41.8464 35.5362 35.9081 23.1766 31.3537 11.2C 29.2234 5.59804 28.192 -0.284519 20.8352 0.918518C 16.2439 1.66931 15.2246 8.29544 13.855 12C 9.5048 23.7658 3.69088 35.801 0.8 48z"/>
<path style="stroke:none; fill:#7d7d7d" d="M 27.2 0.799999L 28 1.6L 27.2 0.799999z"/>
<path style="stroke:none; fill:#cdcdc9" d="M 96 0.799999L 96.8 1.6L 96 0.799999z"/>
<path style="stroke:none; fill:#999999" d="M 96.8 0.799999L 97.6 1.6L 96.8 0.799999z"/>
<path style="stroke:none; fill:#636363" d="M 97.6 0.799999L 98.4 1.6L 97.6 0.799999z"/>
<path style="stroke:none; fill:#33332f" d="M 94.4 33.6L 84.8 33.6C 87.0344 48.5045 116.835 55.9354 119.82 38.4C 121.828 26.6066 112.09 23.287 103.2 19.637C 99.992 18.3202 94.496 15.5116 97.2984 11.287C 102.415 3.57314 107.583 11.8894 112.207 13.9173C 114.454 14.9024 117.6 14.4 120 14.4C 119.194 -1.09041 92.1008 -5.1746 87.0832 9.60064C 83.6528 19.7027 92.8248 25.0199 100.8 27.9574C 104.127 29.183 109.25 30.3314 110.118 34.4315C 112.155 44.0642 96.76 40.518 94.4 33.6z"/>
<path style="stroke:none; fill:#898989" d="M 108.534 1.06666C 108.178 1.42224 109.022 1.37778 109.066 1.33334C 109.422 0.977776 108.578 1.02223 108.534 1.06666z"/>
<path style="stroke:none; fill:#bdbdbd" d="M 109.6 0.799999L 110.4 1.6L 109.6 0.799999z"/>
<path style="stroke:none; fill:#898989" d="M 94.4 1.6L 95.2 2.4L 94.4 1.6M 111.2 1.6L 112 2.4L 111.2 1.6z"/>
<path style="stroke:none; fill:#a3a3a3" d="M 16.8 2.4L 17.6 3.2L 16.8 2.4z"/>
<path style="stroke:none; fill:#b3b3af" d="M 28 2.4L 28.8 3.2L 28 2.4z"/>
<path style="stroke:none; fill:#7d7d7d" d="M 92.8 2.4L 93.6 3.2L 92.8 2.4M 112.8 2.4L 113.6 3.2L 112.8 2.4z"/>
<path style="stroke:none; fill:#636363" d="M 28 3.2L 28.8 4L 28 3.2z"/>
<path style="stroke:none; fill:#999999" d="M 91.2 3.2L 92 4L 91.2 3.2z"/>
<path style="stroke:none; fill:#a3a3a3" d="M 114.4 3.2L 115.2 4L 114.4 3.2z"/>
<path style="stroke:none; fill:#7d7d7d" d="M 115.2 4L 116 4.8L 115.2 4z"/>
<path style="stroke:none; fill:#898989" d="M 16 4.8L 16.8 5.6L 16 4.8z"/>
<path style="stroke:none; fill:#999999" d="M 28.8 4.8L 29.6 5.6L 28.8 4.8z"/>
<path style="stroke:none; fill:#7d7d7d" d="M 116.8 5.6L 117.6 6.4L 116.8 5.6z"/>
<path style="stroke:none; fill:#bdbdbd" d="M 15.2 6.4L 16 7.2L 15.2 6.4z"/>
<path style="stroke:none; fill:#cdcdc9" d="M 29.6 6.4L 30.4 7.2L 29.6 6.4z"/>
<path style="stroke:none; fill:#636363" d="M 88 6.4L 88.8 7.2L 88 6.4z"/>
<path style="stroke:none; fill:#999999" d="M 117.6 6.4L 118.4 7.2L 117.6 6.4z"/>
<path style="stroke:none; fill:#73736f" d="M 15.2 7.2L 16 8L 15.2 7.2z"/>
<path style="stroke:none; fill:#7d7d7d" d="M 29.6 7.2L 30.4 8L 29.6 7.2z"/>
<path style="stroke:none; fill:#b3b3af" d="M 87.2 7.2L 88 8L 87.2 7.2z"/>
<path style="stroke:none; fill:#898989" d="M 100 8L 100 8.8L 102.4 8.8C 101.402 8.25216 101.162 8.20096 100 8z"/>
<path style="stroke:none; fill:#a3a3a3" d="M 102.4 8L 102.4 8.8L 105.6 8.8C 104.395 8.2536 103.748 8.13928 102.4 8z"/>
<path style="stroke:none; fill:#636363" d="M 118.4 8L 119.2 8.8L 118.4 8z"/>
<path style="stroke:none; fill:#a3a3a3" d="M 14.4 8.8L 15.2 9.6L 14.4 8.8z"/>
<path style="stroke:none; fill:#b3b3af" d="M 30.4 8.8L 31.2 9.6L 30.4 8.8M 86.4 8.8L 87.2 9.6L 86.4 8.8z"/>
<path style="stroke:none; fill:#999999" d="M 98.4 8.8L 99.2 9.6L 98.4 8.8z"/>
<path style="stroke:none; fill:#ffffff" d="M 120 32L 120.8 32L 120.8 15.2L 110.4 15.2C 109.458 6.92021 94.9672 6.94699 96.6536 14.3685C 97.5496 18.3091 103.21 19.389 106.4 20.5562C 112.272 22.7046 117.891 25.7974 120 32z"/>
<path style="stroke:none; fill:#7d7d7d" d="M 107.2 8.8L 108 9.6L 107.2 8.8z"/>
<path style="stroke:none; fill:#cdcdc9" d="M 119.2 8.8L 120 9.6L 119.2 8.8z"/>
<path style="stroke:none; fill:#636363" d="M 30.4 9.6L 31.2 10.4L 30.4 9.6z"/>
<path style="stroke:none; fill:#33332f" d="M 72 9.6C 69.1783 14.2354 73.3264 17.5663 74.1395 22.4C 75.1318 28.299 73.1033 32.9921 69.6 37.6L 69.6 38.4C 74.9818 41.743 77.7572 35.1385 78.7852 30.4C 80.4416 22.765 78.386 14.3446 72 9.6z"/>
<path style="stroke:none; fill:#898989" d="M 72.8 9.6L 73.6 10.4L 72.8 9.6z"/>
<path style="stroke:none; fill:#73736f" d="M 86.4 9.6L 87.2 10.4L 86.4 9.6z"/>
<path style="stroke:none; fill:#cdcdc9" d="M 108 9.6L 108.8 10.4L 108 9.6z"/>
<path style="stroke:none; fill:#7d7d7d" d="M 119.2 9.6L 120 10.4L 119.2 9.6M 73.6 10.4L 74.4 11.2L 73.6 10.4z"/>
<path style="stroke:none; fill:#cdcdc9" d="M 96.8 10.4L 97.6 11.2L 96.8 10.4z"/>
<path style="stroke:none; fill:#898989" d="M 13.6 11.2L 14.4 12L 13.6 11.2z"/>
<path style="stroke:none; fill:#a3a3a3" d="M 31.2 11.2L 32 12L 31.2 11.2M 74.4 11.2L 75.2 12L 74.4 11.2z"/>
<path style="stroke:none; fill:#cdcdc9" d="M 85.6 11.2L 85.6 16L 86.4 16C 86.3624 14.1978 86.2992 12.8417 85.6 11.2z"/>
<path style="stroke:none; fill:#898989" d="M 96 11.2L 96.8 12L 96 11.2z"/>
<path style="stroke:none; fill:#999999" d="M 109.6 11.2L 110.4 12L 109.6 11.2z"/>
<path style="stroke:none; fill:#a3a3a3" d="M 120 11.2L 120 13.6L 120.8 13.6C 120.599 12.4388 120.548 12.1986 120 11.2z"/>
<path style="stroke:none; fill:#898989" d="M 60.8 12L 61.6 12.8L 60.8 12z"/>
<path style="stroke:none; fill:#cdcdc9" d="M 75.2 12L 76 12.8L 75.2 12M 96 12L 96.8 12.8L 96 12z"/>
<path style="stroke:none; fill:#bdbdbd" d="M 12.8 12.8L 13.6 13.6L 12.8 12.8z"/>
<path style="stroke:none; fill:#33332f" d="M 60.8 38.4C 66.2561 33.8761 68.2186 25.0501 65.4173 18.4006C 64.8483 17.0502 61.0276 11.2238 59.4414 14.7012C 58.0102 17.8385 62.7813 23.2082 61.9648 27.2C 61.0372 31.7353 57.9374 34.0154 60.8 38.4z"/>
<path style="stroke:none; fill:#7d7d7d" d="M 61.6 12.8L 62.4 13.6L 61.6 12.8z"/>
<path style="stroke:none; fill:#73736f" d="M 69.6 12.8L 70.4 13.6L 69.6 12.8z"/>
<path style="stroke:none; fill:#7d7d7d" d="M 12.8 13.6L 13.6 14.4L 12.8 13.6z"/>
<path style="stroke:none; fill:#ffffff" d="M 22.4 13.6C 21.0862 19.2787 18.4531 24.6231 17.6 30.4L 28 30.4C 27.2017 24.9942 25.3167 18.2351 22.4 13.6z"/>
<path style="stroke:none; fill:#7d7d7d" d="M 32 13.6L 32.8 14.4L 32 13.6z"/>
<path style="stroke:none; fill:#b3b3af" d="M 58.4 13.6L 59.2 14.4L 58.4 13.6z"/>
<path style="stroke:none; fill:#7d7d7d" d="M 62.4 13.6L 63.2 14.4L 62.4 13.6z"/>
<path style="stroke:none; fill:#73736f" d="M 76 13.6L 76.8 14.4L 76 13.6z"/>
<path style="stroke:none; fill:#7d7d7d" d="M 110.4 13.6L 111.2 14.4L 110.4 13.6z"/>
<path style="stroke:none; fill:#898989" d="M 120.266 14.1334C 120.222 14.1778 120.178 15.0222 120.534 14.6666C 120.578 14.6222 120.622 13.7778 120.266 14.1334z"/>
<path style="stroke:none; fill:#73736f" d="M 21.6 14.4L 22.4 15.2L 21.6 14.4z"/>
<path style="stroke:none; fill:#999999" d="M 48.8 14.4L 49.6 15.2L 48.8 14.4z"/>
<path style="stroke:none; fill:#bdbdbd" d="M 57.8666 14.9334C 57.8222 14.9778 57.7778 15.8222 58.1334 15.4666C 58.1778 15.4222 58.2222 14.5778 57.8666 14.9334z"/>
<path style="stroke:none; fill:#a3a3a3" d="M 63.2 14.4L 64 15.2L 63.2 14.4z"/>
<path style="stroke:none; fill:#cdcdc9" d="M 76.8 14.4L 77.6 15.2L 76.8 14.4z"/>
<path style="stroke:none; fill:#b3b3af" d="M 110.4 14.4L 111.2 15.2L 110.4 14.4z"/>
<path style="stroke:none; fill:#636363" d="M 111.2 14.4L 111.2 15.2L 120 15.2C 117.254 14.0478 114.16 14.4 111.2 14.4z"/>
<path style="stroke:none; fill:#b3b3af" d="M 12 15.2L 12.8 16L 12 15.2M 21.6 15.2L 22.4 16L 21.6 15.2z"/>
<path style="stroke:none; fill:#a3a3a3" d="M 23.2 15.2L 24 16L 23.2 15.2z"/>
<path style="stroke:none; fill:#b3b3af" d="M 32.8 15.2L 33.6 16L 32.8 15.2z"/>
<path style="stroke:none; fill:#73736f" d="M 48 15.2L 48.8 16L 48 15.2z"/>
<path style="stroke:none; fill:#33332f" d="M 46.4 16.8C 47.6409 19.9082 49.8101 22.8869 49.2932 26.4C 48.9973 28.4118 46.1582 32.0126 47.7945 33.8704C 49.7064 36.0411 52.1196 32.6869 52.8642 31.1846C 55.3457 26.178 54.3421 13.5477 46.4 16.8z"/>
<path style="stroke:none; fill:#a3a3a3" d="M 71.2 15.2L 72 16L 71.2 15.2z"/>
<path style="stroke:none; fill:#636363" d="M 76.8 15.2L 77.6 16L 76.8 15.2z"/>
<path style="stroke:none; fill:#7d7d7d" d="M 96 15.2L 96.8 16L 96 15.2z"/>
<path style="stroke:none; fill:#73736f" d="M 32.8 16L 33.6 16.8L 32.8 16z"/>
<path style="stroke:none; fill:#a3a3a3" d="M 58.4 16L 59.2 16.8L 58.4 16z"/>
<path style="stroke:none; fill:#636363" d="M 64 16L 64.8 16.8L 64 16M 72 16L 72.8 16.8L 72 16z"/>
<path style="stroke:none; fill:#cdcdc9" d="M 77.6 16L 78.4 16.8L 77.6 16z"/>
<path style="stroke:none; fill:#b3b3af" d="M 96.8 16L 97.6 16.8L 96.8 16z"/>
<path style="stroke:none; fill:#73736f" d="M 20.8 16.8L 21.6 17.6L 20.8 16.8z"/>
<path style="stroke:none; fill:#7d7d7d" d="M 59.2 16.8L 60 17.6L 59.2 16.8z"/>
<path style="stroke:none; fill:#b3b3af" d="M 64.8 16.8L 65.6 17.6L 64.8 16.8z"/>
<path style="stroke:none; fill:#cdcdc9" d="M 72 16.8L 72.8 17.6L 72 16.8z"/>
<path style="stroke:none; fill:#7d7d7d" d="M 77.6 16.8L 78.4 17.6L 77.6 16.8z"/>
<path style="stroke:none; fill:#73736f" d="M 86.4 16.8L 87.2 17.6L 86.4 16.8z"/>
<path style="stroke:none; fill:#898989" d="M 97.6 16.8L 98.4 17.6L 97.6 16.8M 11.2 17.6L 12 18.4L 11.2 17.6z"/>
<path style="stroke:none; fill:#b3b3af" d="M 20.8 17.6L 21.6 18.4L 20.8 17.6z"/>
<path style="stroke:none; fill:#a3a3a3" d="M 24 17.6L 24.8 18.4L 24 17.6M 33.6 17.6L 34.4 18.4L 33.6 17.6z"/>
<path style="stroke:none; fill:#999999" d="M 52 17.6L 52.8 18.4L 52 17.6z"/>
<path style="stroke:none; fill:#b3b3af" d="M 86.4 17.6L 87.2 18.4L 86.4 17.6M 99.2 17.6L 100 18.4L 99.2 17.6z"/>
<path style="stroke:none; fill:#999999" d="M 60 18.4L 60.8 19.2L 60 18.4z"/>
<path style="stroke:none; fill:#cdcdc9" d="M 65.6 18.4L 66.4 19.2L 65.6 18.4z"/>
<path style="stroke:none; fill:#b3b3af" d="M 72.8 18.4L 73.6 19.2L 72.8 18.4M 78.4 18.4L 79.2 19.2L 78.4 18.4z"/>
<path style="stroke:none; fill:#a3a3a3" d="M 100.8 18.4L 101.6 19.2L 100.8 18.4z"/>
<path style="stroke:none; fill:#cdcdc9" d="M 10.4 19.2L 11.2 20L 10.4 19.2z"/>
<path style="stroke:none; fill:#73736f" d="M 20 19.2L 20.8 20L 20 19.2z"/>
<path style="stroke:none; fill:#b3b3af" d="M 47.2 19.2L 48 20L 47.2 19.2z"/>
<path style="stroke:none; fill:#898989" d="M 52.8 19.2L 53.6 20L 52.8 19.2z"/>
<path style="stroke:none; fill:#7d7d7d" d="M 65.6 19.2L 66.4 20L 65.6 19.2M 78.4 19.2L 79.2 20L 78.4 19.2z"/>
<path style="stroke:none; fill:#bdbdbd" d="M 87.2 19.2L 88 20L 87.2 19.2z"/>
<path style="stroke:none; fill:#7d7d7d" d="M 102.4 19.2L 103.2 20L 102.4 19.2z"/>
<path style="stroke:none; fill:#bdbdbd" d="M 103.2 19.2L 104 20L 103.2 19.2z"/>
<path style="stroke:none; fill:#7d7d7d" d="M 10.4 20L 11.2 20.8L 10.4 20z"/>
<path style="stroke:none; fill:#b3b3af" d="M 20 20L 20.8 20.8L 20 20z"/>
<path style="stroke:none; fill:#a3a3a3" d="M 24.8 20L 25.6 20.8L 24.8 20z"/>
<path style="stroke:none; fill:#7d7d7d" d="M 34.4 20L 35.2 20.8L 34.4 20z"/>
<path style="stroke:none; fill:#636363" d="M 48 20L 48.8 20.8L 48 20z"/>
<path style="stroke:none; fill:#898989" d="M 60.8 20L 61.6 20.8L 60.8 20z"/>
<path style="stroke:none; fill:#7d7d7d" d="M 88 20L 88.8 20.8L 88 20z"/>
<path style="stroke:none; fill:#73736f" d="M 104.8 20L 105.6 20.8L 104.8 20z"/>
<path style="stroke:none; fill:#b3b3af" d="M 105.6 20L 106.4 20.8L 105.6 20z"/>
<path style="stroke:none; fill:#cdcdc9" d="M 48 20.8L 48.8 21.6L 48 20.8z"/>
<path style="stroke:none; fill:#bdbdbd" d="M 53.6 20.8L 54.4 21.6L 53.6 20.8z"/>
<path style="stroke:none; fill:#cdcdc9" d="M 60.8 20.8L 61.6 21.6L 60.8 20.8z"/>
<path style="stroke:none; fill:#b3b3af" d="M 73.8666 21.3334C 73.8222 21.3778 73.7778 22.2222 74.1334 21.8666C 74.1778 21.8222 74.2222 20.9778 73.8666 21.3334z"/>
<path style="stroke:none; fill:#73736f" d="M 107.2 20.8L 108 21.6L 107.2 20.8z"/>
<path style="stroke:none; fill:#bdbdbd" d="M 108 20.8L 108.8 21.6L 108 20.8z"/>
<path style="stroke:none; fill:#b3b3af" d="M 9.6 21.6L 10.4 22.4L 9.6 21.6z"/>
<path style="stroke:none; fill:#73736f" d="M 19.2 21.6L 20 22.4L 19.2 21.6z"/>
<path style="stroke:none; fill:#b3b3af" d="M 35.2 21.6L 36 22.4L 35.2 21.6z"/>
<path style="stroke:none; fill:#636363" d="M 53.8666 22.1334C 53.8222 22.1778 53.7778 23.0222 54.1334 22.6666C 54.1778 22.6222 54.2222 21.7778 53.8666 22.1334z"/>
<path style="stroke:none; fill:#999999" d="M 66.6666 22.1334C 66.6222 22.1778 66.5778 23.0222 66.9334 22.6666C 66.9778 22.6222 67.0222 21.7778 66.6666 22.1334z"/>
<path style="stroke:none; fill:#b3b3af" d="M 79.4666 22.1334C 79.4222 22.1778 79.3778 23.0222 79.7334 22.6666C 79.7778 22.6222 79.8222 21.7778 79.4666 22.1334z"/>
<path style="stroke:none; fill:#999999" d="M 109.6 21.6L 110.4 22.4L 109.6 21.6z"/>
<path style="stroke:none; fill:#636363" d="M 9.6 22.4L 10.4 23.2L 9.6 22.4z"/>
<path style="stroke:none; fill:#b3b3af" d="M 19.2 22.4L 20 23.2L 19.2 22.4z"/>
<path style="stroke:none; fill:#a3a3a3" d="M 25.6 22.4L 26.4 23.2L 25.6 22.4z"/>
<path style="stroke:none; fill:#73736f" d="M 35.2 22.4L 36 23.2L 35.2 22.4z"/>
<path style="stroke:none; fill:#7d7d7d" d="M 48.8 22.4L 49.6 23.2L 48.8 22.4z"/>
<path style="stroke:none; fill:#636363" d="M 61.8666 22.9334C 61.8222 22.9778 61.7778 23.8222 62.1334 23.4666C 62.1778 23.4222 62.2222 22.5778 61.8666 22.9334z"/>
<path style="stroke:none; fill:#cdcdc9" d="M 73.8666 22.9334C 73.8222 22.9778 73.7778 23.8222 74.1334 23.4666C 74.1778 23.4222 74.2222 22.5778 73.8666 22.9334z"/>
<path style="stroke:none; fill:#7d7d7d" d="M 111.2 22.4L 112 23.2L 111.2 22.4z"/>
<path style="stroke:none; fill:#cdcdc9" d="M 48.8 23.2L 48.8 27.2L 49.6 27.2C 49.5299 25.6287 49.4231 24.6152 48.8 23.2z"/>
<path style="stroke:none; fill:#636363" d="M 66.4 23.2L 66.4 27.2L 67.2 27.2C 67.1299 25.6287 67.0231 24.6152 66.4 23.2z"/>
<path style="stroke:none; fill:#999999" d="M 79.2 23.2L 79.2 28L 80 28C 79.9622 26.1978 79.8994 24.8417 79.2 23.2z"/>
<path style="stroke:none; fill:#898989" d="M 91.2 23.2L 92 24L 91.2 23.2z"/>
<path style="stroke:none; fill:#999999" d="M 112.8 23.2L 113.6 24L 112.8 23.2M 8.8 24L 9.6 24.8L 8.8 24z"/>
<path style="stroke:none; fill:#73736f" d="M 18.4 24L 19.2 24.8L 18.4 24z"/>
<path style="stroke:none; fill:#a3a3a3" d="M 36 24L 36.8 24.8L 36 24z"/>
<path style="stroke:none; fill:#999999" d="M 61.6 24L 61.6 26.4L 62.4 26.4C 62.199 25.2387 62.1478 24.9986 61.6 24z"/>
<path style="stroke:none; fill:#cdcdc9" d="M 92 24L 92.8 24.8L 92 24M 114.4 24L 115.2 24.8L 114.4 24z"/>
<path style="stroke:none; fill:#b3b3af" d="M 18.4 24.8L 19.2 25.6L 18.4 24.8z"/>
<path style="stroke:none; fill:#a3a3a3" d="M 26.4 24.8L 27.2 25.6L 26.4 24.8z"/>
<path style="stroke:none; fill:#999999" d="M 93.6 24.8L 94.4 25.6L 93.6 24.8M 115.2 24.8L 116 25.6L 115.2 24.8z"/>
<path style="stroke:none; fill:#a3a3a3" d="M 95.2 25.6L 96 26.4L 95.2 25.6z"/>
<path style="stroke:none; fill:#7d7d7d" d="M 116 25.6L 116.8 26.4L 116 25.6M 8 26.4L 8.8 27.2L 8 26.4z"/>
<path style="stroke:none; fill:#636363" d="M 17.6 26.4L 18.4 27.2L 17.6 26.4z"/>
<path style="stroke:none; fill:#7d7d7d" d="M 36.8 26.4L 37.6 27.2L 36.8 26.4z"/>
<path style="stroke:none; fill:#636363" d="M 61.8666 26.9334C 61.8222 26.9778 61.7778 27.8222 62.1334 27.4666C 62.1778 27.4222 62.2222 26.5778 61.8666 26.9334z"/>
<path style="stroke:none; fill:#cdcdc9" d="M 73.6 26.4L 73.6 28.8L 74.4 28.8C 74.199 27.6387 74.1478 27.3987 73.6 26.4z"/>
<path style="stroke:none; fill:#bdbdbd" d="M 96.8 26.4L 97.6 27.2L 96.8 26.4z"/>
<path style="stroke:none; fill:#73736f" d="M 97.6 26.4L 98.4 27.2L 97.6 26.4z"/>
<path style="stroke:none; fill:#7d7d7d" d="M 116.8 26.4L 117.6 27.2L 116.8 26.4z"/>
<path style="stroke:none; fill:#a3a3a3" d="M 17.6 27.2L 18.4 28L 17.6 27.2M 27.2 27.2L 28 28L 27.2 27.2z"/>
<path style="stroke:none; fill:#898989" d="M 48.8 27.2L 49.6 28L 48.8 27.2z"/>
<path style="stroke:none; fill:#b3b3af" d="M 66.4 27.2L 66.4 29.6L 67.2 29.6C 66.999 28.4387 66.9478 28.1986 66.4 27.2z"/>
<path style="stroke:none; fill:#a3a3a3" d="M 99.2 27.2L 100 28L 99.2 27.2z"/>
<path style="stroke:none; fill:#999999" d="M 117.6 27.2L 118.4 28L 117.6 27.2z"/>
<path style="stroke:none; fill:#b3b3af" d="M 7.2 28L 8 28.8L 7.2 28M 37.6 28L 38.4 28.8L 37.6 28z"/>
<path style="stroke:none; fill:#7d7d7d" d="M 53.6 28L 54.4 28.8L 53.6 28z"/>
<path style="stroke:none; fill:#e3e3e3" d="M 79.4666 28.5334C 79.4222 28.5778 79.3778 29.4222 79.7334 29.0666C 79.7778 29.0222 79.8222 28.1778 79.4666 28.5334z"/>
<path style="stroke:none; fill:#a3a3a3" d="M 101.6 28L 102.4 28.8L 101.6 28z"/>
<path style="stroke:none; fill:#cdcdc9" d="M 118.4 28L 119.2 28.8L 118.4 28z"/>
<path style="stroke:none; fill:#73736f" d="M 7.2 28.8L 8 29.6L 7.2 28.8M 37.6 28.8L 38.4 29.6L 37.6 28.8z"/>
<path style="stroke:none; fill:#b3b3af" d="M 53.6 28.8L 54.4 29.6L 53.6 28.8z"/>
<path style="stroke:none; fill:#999999" d="M 73.6 28.8L 74.4 29.6L 73.6 28.8z"/>
<path style="stroke:none; fill:#898989" d="M 104 28.8L 104.8 29.6L 104 28.8z"/>
<path style="stroke:none; fill:#a3a3a3" d="M 16.8 29.6L 17.6 30.4L 16.8 29.6M 28 29.6L 28.8 30.4L 28 29.6z"/>
<path style="stroke:none; fill:#7d7d7d" d="M 48 29.6L 48.8 30.4L 48 29.6z"/>
<path style="stroke:none; fill:#a3a3a3" d="M 60.8 29.6L 61.6 30.4L 60.8 29.6z"/>
<path style="stroke:none; fill:#636363" d="M 73.6 29.6L 74.4 30.4L 73.6 29.6z"/>
<path style="stroke:none; fill:#b3b3af" d="M 105.6 29.6L 106.4 30.4L 105.6 29.6z"/>
<path style="stroke:none; fill:#636363" d="M 106.4 29.6L 107.2 30.4L 106.4 29.6z"/>
<path style="stroke:none; fill:#b3b3af" d="M 119.2 29.6L 120 30.4L 119.2 29.6z"/>
<path style="stroke:none; fill:#a3a3a3" d="M 6.4 30.4L 7.2 31.2L 6.4 30.4M 38.4 30.4L 39.2 31.2L 38.4 30.4z"/>
<path style="stroke:none; fill:#cdcdc9" d="M 47.2 30.4L 48 31.2L 47.2 30.4z"/>
<path style="stroke:none; fill:#7d7d7d" d="M 52.8 30.4L 53.6 31.2L 52.8 30.4M 65.6 30.4L 66.4 31.2L 65.6 30.4z"/>
<path style="stroke:none; fill:#73736f" d="M 78.4 30.4L 79.2 31.2L 78.4 30.4z"/>
<path style="stroke:none; fill:#bdbdbd" d="M 107.2 30.4L 108 31.2L 107.2 30.4z"/>
<path style="stroke:none; fill:#636363" d="M 119.2 30.4L 120 31.2L 119.2 30.4z"/>
<path style="stroke:none; fill:#cdcdc9" d="M 52.8 31.2L 53.6 32L 52.8 31.2z"/>
<path style="stroke:none; fill:#b3b3af" d="M 60 31.2L 60.8 32L 60 31.2z"/>
<path style="stroke:none; fill:#bdbdbd" d="M 65.6 31.2L 66.4 32L 65.6 31.2z"/>
<path style="stroke:none; fill:#b3b3af" d="M 72.8 31.2L 73.6 32L 72.8 31.2z"/>
<path style="stroke:none; fill:#a3a3a3" d="M 78.4 31.2L 79.2 32L 78.4 31.2z"/>
<path style="stroke:none; fill:#73736f" d="M 108.8 31.2L 109.6 32L 108.8 31.2z"/>
<path style="stroke:none; fill:#7d7d7d" d="M 52 32L 52.8 32.8L 52 32z"/>
<path style="stroke:none; fill:#73736f" d="M 72.8 32L 73.6 32.8L 72.8 32z"/>
<path style="stroke:none; fill:#999999" d="M 120 32L 120 34.4L 120.8 34.4C 120.599 33.2388 120.548 32.9986 120 32z"/>
<path style="stroke:none; fill:#7d7d7d" d="M 5.6 32.8L 6.4 33.6L 5.6 32.8M 39.2 32.8L 40 33.6L 39.2 32.8z"/>
<path style="stroke:none; fill:#999999" d="M 59.2 32.8L 60 33.6L 59.2 32.8M 64.8 32.8L 65.6 33.6L 64.8 32.8z"/>
<path style="stroke:none; fill:#636363" d="M 77.6 32.8L 78.4 33.6L 77.6 32.8M 84.8 32.8L 84.8 33.6L 94.4 33.6C 91.4424 32.3588 87.9864 32.8 84.8 32.8z"/>
<path style="stroke:none; fill:#cdcdc9" d="M 94.4 32.8L 94.4 35.2L 95.2 35.2C 94.9992 34.0387 94.948 33.7986 94.4 32.8M 51.2 33.6L 52 34.4L 51.2 33.6M 58.4 33.6L 59.2 34.4L 58.4 33.6z"/>
<path style="stroke:none; fill:#7d7d7d" d="M 72 33.6L 72.8 34.4L 72 33.6z"/>
<path style="stroke:none; fill:#b3b3af" d="M 77.6 33.6L 78.4 34.4L 77.6 33.6z"/>
<path style="stroke:none; fill:#bdbdbd" d="M 4.8 34.4L 5.6 35.2L 4.8 34.4z"/>
<path style="stroke:none; fill:#b3b3af" d="M 40 34.4L 40.8 35.2L 40 34.4M 50.4 34.4L 51.2 35.2L 50.4 34.4z"/>
<path style="stroke:none; fill:#cdcdc9" d="M 64 34.4L 64.8 35.2L 64 34.4M 71.2 34.4L 72 35.2L 71.2 34.4z"/>
<path style="stroke:none; fill:#7d7d7d" d="M 110.666 34.9334C 110.622 34.9778 110.578 35.8222 110.934 35.4666C 110.978 35.4222 111.022 34.5778 110.666 34.9334z"/>
<path style="stroke:none; fill:#636363" d="M 120 34.4L 120 36.8L 120.8 36.8C 120.599 35.6388 120.548 35.3986 120 34.4z"/>
<path style="stroke:none; fill:#73736f" d="M 4.8 35.2L 5.6 36L 4.8 35.2M 40 35.2L 40.8 36L 40 35.2z"/>
<path style="stroke:none; fill:#636363" d="M 48.8 35.2L 49.6 36L 48.8 35.2z"/>
<path style="stroke:none; fill:#cdcdc9" d="M 49.6 35.2L 50.4 36L 49.6 35.2z"/>
<path style="stroke:none; fill:#898989" d="M 57.6 35.2L 58.4 36L 57.6 35.2z"/>
<path style="stroke:none; fill:#7d7d7d" d="M 63.2 35.2L 64 36L 63.2 35.2z"/>
<path style="stroke:none; fill:#b3b3af" d="M 76.8 35.2L 77.6 36L 76.8 35.2z"/>
<path style="stroke:none; fill:#898989" d="M 94.4 35.2L 95.2 36L 94.4 35.2z"/>
<path style="stroke:none; fill:#999999" d="M 58.4 36L 59.2 36.8L 58.4 36z"/>
<path style="stroke:none; fill:#636363" d="M 70.4 36L 71.2 36.8L 70.4 36M 76 36L 76.8 36.8L 76 36M 84.8 36L 85.6 36.8L 84.8 36z"/>
<path style="stroke:none; fill:#a3a3a3" d="M 4 36.8L 4.8 37.6L 4 36.8M 40.8 36.8L 41.6 37.6L 40.8 36.8z"/>
<path style="stroke:none; fill:#b3b3af" d="M 59.2 36.8L 60 37.6L 59.2 36.8z"/>
<path style="stroke:none; fill:#999999" d="M 69.6 36.8L 70.4 37.6L 69.6 36.8z"/>
<path style="stroke:none; fill:#a3a3a3" d="M 84.8 36.8L 85.6 37.6L 84.8 36.8M 95.2 36.8L 96 37.6L 95.2 36.8M 120.266 37.3334C 120.222 37.3778 120.178 38.2222 120.534 37.8666C 120.578 37.8222 120.622 36.9778 120.266 37.3334z"/>
<path style="stroke:none; fill:#b3b3af" d="M 60 37.6L 60.8 38.4L 60 37.6M 75.2 37.6L 76 38.4L 75.2 37.6z"/>
<path style="stroke:none; fill:#7d7d7d" d="M 109.6 37.6L 110.4 38.4L 109.6 37.6z"/>
<path style="stroke:none; fill:#cdcdc9" d="M 14.4 38.4L 14.4 39.2L 31.2 39.2C 26.4328 37.1996 19.5489 38.4 14.4 38.4z"/>
<path style="stroke:none; fill:#7d7d7d" d="M 74.4 38.4L 75.2 39.2L 74.4 38.4z"/>
<path style="stroke:none; fill:#636363" d="M 85.6 38.4L 86.4 39.2L 85.6 38.4z"/>
<path style="stroke:none; fill:#b3b3af" d="M 108.8 38.4L 109.6 39.2L 108.8 38.4z"/>
<path style="stroke:none; fill:#ffffff" d="M 120 38.4C 118.109 43.9624 113.709 47.1405 108 48L 108 48.8L 120.8 48.8C 120.8 45.3893 121.329 41.567 120 38.4z"/>
<path style="stroke:none; fill:#898989" d="M 3.2 39.2L 4 40L 3.2 39.2z"/>
<path style="stroke:none; fill:#a3a3a3" d="M 13.6 39.2L 14.4 40L 13.6 39.2z"/>
<path style="stroke:none; fill:#ffffff" d="M 11.2 48.8L 34.4 48.8C 32.559 40.8421 23.2563 34.0899 14.808 40.0222C 12.4198 41.6991 11.8128 46.1512 11.2 48.8z"/>
<path style="stroke:none; fill:#a3a3a3" d="M 31.2 39.2L 32 40L 31.2 39.2z"/>
<path style="stroke:none; fill:#898989" d="M 41.6 39.2L 42.4 40L 41.6 39.2z"/>
<path style="stroke:none; fill:#cdcdc9" d="M 85.6 39.2L 86.4 40L 85.6 39.2z"/>
<path style="stroke:none; fill:#7d7d7d" d="M 97.6 39.2L 98.4 40L 97.6 39.2z"/>
<path style="stroke:none; fill:#898989" d="M 108 39.2L 108.8 40L 108 39.2z"/>
<path style="stroke:none; fill:#73736f" d="M 72.8 40L 73.6 40.8L 72.8 40z"/>
<path style="stroke:none; fill:#636363" d="M 86.4 40L 87.2 40.8L 86.4 40z"/>
<path style="stroke:none; fill:#b3b3af" d="M 100.534 40.2666C 100.178 40.6222 101.022 40.5778 101.066 40.5334C 101.422 40.1778 100.578 40.2222 100.534 40.2666z"/>
<path style="stroke:none; fill:#cdcdc9" d="M 101.6 40L 101.6 40.8L 105.6 40.8C 104.185 40.1769 103.171 40.0701 101.6 40z"/>
<path style="stroke:none; fill:#73736f" d="M 106.134 40.2666C 105.778 40.6222 106.622 40.5778 106.666 40.5334C 107.022 40.1778 106.178 40.2222 106.134 40.2666z"/>
<path style="stroke:none; fill:#999999" d="M 119.2 40L 120 40.8L 119.2 40z"/>
<path style="stroke:none; fill:#bdbdbd" d="M 2.4 40.8L 3.2 41.6L 2.4 40.8z"/>
<path style="stroke:none; fill:#636363" d="M 32 40.8L 32.8 41.6L 32 40.8z"/>
<path style="stroke:none; fill:#bdbdbd" d="M 42.4 40.8L 43.2 41.6L 42.4 40.8z"/>
<path style="stroke:none; fill:#73736f" d="M 2.4 41.6L 3.2 42.4L 2.4 41.6z"/>
<path style="stroke:none; fill:#a3a3a3" d="M 12.8 41.6L 13.6 42.4L 12.8 41.6z"/>
<path style="stroke:none; fill:#b3b3af" d="M 32 41.6L 32.8 42.4L 32 41.6z"/>
<path style="stroke:none; fill:#73736f" d="M 42.4 41.6L 43.2 42.4L 42.4 41.6z"/>
<path style="stroke:none; fill:#b3b3af" d="M 87.2 41.6L 88 42.4L 87.2 41.6z"/>
<path style="stroke:none; fill:#999999" d="M 118.4 41.6L 119.2 42.4L 118.4 41.6M 88 42.4L 88.8 43.2L 88 42.4z"/>
<path style="stroke:none; fill:#636363" d="M 117.6 42.4L 118.4 43.2L 117.6 42.4z"/>
<path style="stroke:none; fill:#b3b3af" d="M 1.6 43.2L 2.4 44L 1.6 43.2z"/>
<path style="stroke:none; fill:#73736f" d="M 32.8 43.2L 33.6 44L 32.8 43.2z"/>
<path style="stroke:none; fill:#a3a3a3" d="M 43.2 43.2L 44 44L 43.2 43.2z"/>
<path style="stroke:none; fill:#b3b3af" d="M 88.8 43.2L 89.6 44L 88.8 43.2z"/>
<path style="stroke:none; fill:#a3a3a3" d="M 12 44L 12.8 44.8L 12 44z"/>
<path style="stroke:none; fill:#b3b3af" d="M 32.8 44L 33.6 44.8L 32.8 44z"/>
<path style="stroke:none; fill:#bdbdbd" d="M 89.6 44L 90.4 44.8L 89.6 44z"/>
<path style="stroke:none; fill:#73736f" d="M 91.2 44.8L 92 45.6L 91.2 44.8z"/>
<path style="stroke:none; fill:#898989" d="M 115.2 44.8L 116 45.6L 115.2 44.8M 0.8 45.6L 1.6 46.4L 0.8 45.6z"/>
<path style="stroke:none; fill:#73736f" d="M 33.6 45.6L 34.4 46.4L 33.6 45.6z"/>
<path style="stroke:none; fill:#898989" d="M 44 45.6L 44.8 46.4L 44 45.6z"/>
<path style="stroke:none; fill:#cdcdc9" d="M 92 45.6L 92.8 46.4L 92 45.6z"/>
<path style="stroke:none; fill:#636363" d="M 92.8 45.6L 93.6 46.4L 92.8 45.6M 113.6 45.6L 114.4 46.4L 113.6 45.6z"/>
<path style="stroke:none; fill:#cdcdc9" d="M 114.4 45.6L 115.2 46.4L 114.4 45.6z"/>
<path style="stroke:none; fill:#a3a3a3" d="M 11.2 46.4L 12 47.2L 11.2 46.4z"/>
<path style="stroke:none; fill:#b3b3af" d="M 33.6 46.4L 34.4 47.2L 33.6 46.4z"/>
<path style="stroke:none; fill:#cdcdc9" d="M 93.6 46.4L 94.4 47.2L 93.6 46.4z"/>
<path style="stroke:none; fill:#7d7d7d" d="M 94.4 46.4L 95.2 47.2L 94.4 46.4z"/>
<path style="stroke:none; fill:#73736f" d="M 112 46.4L 112.8 47.2L 112 46.4z"/>
<path style="stroke:none; fill:#cdcdc9" d="M 112.8 46.4L 113.6 47.2L 112.8 46.4M 0.266666 47.7334C 0.222222 47.7778 0.177778 48.6222 0.533334 48.2666C 0.577778 48.2222 0.622222 47.3778 0.266666 47.7334M 45.0666 47.7334C 45.0222 47.7778 44.9778 48.6222 45.3334 48.2666C 45.3778 48.2222 45.4222 47.3778 45.0666 47.7334z"/>
<path style="stroke:none; fill:#bdbdbd" d="M 96 47.2L 96.8 48L 96 47.2z"/>
<path style="stroke:none; fill:#898989" d="M 96.8 47.2L 97.6 48L 96.8 47.2z"/>
<path style="stroke:none; fill:#7d7d7d" d="M 109.6 47.2L 110.4 48L 109.6 47.2z"/>
<path style="stroke:none; fill:#b3b3af" d="M 110.4 47.2L 111.2 48L 110.4 47.2z"/>
<path style="stroke:none; fill:#999999" d="M 0.8 48L 0.8 48.8L 11.2 48.8C 8.03304 47.4711 4.21072 48 0.8 48M 34.4 48L 34.4 48.8L 44.8 48.8C 41.633 47.4711 37.8107 48 34.4 48z"/>
<path style="stroke:none; fill:#cdcdc9" d="M 99.7336 48.2666C 99.3776 48.6222 100.222 48.5778 100.266 48.5334C 100.622 48.1778 99.7776 48.2222 99.7336 48.2666z"/>
<path style="stroke:none; fill:#999999" d="M 100.8 48L 100.8 48.8L 106.4 48.8C 104.534 48.0124 102.834 48.015 100.8 48z"/>
<path style="stroke:none; fill:#cdcdc9" d="M 106.934 48.2666C 106.578 48.6222 107.422 48.5778 107.466 48.5334C 107.822 48.1778 106.978 48.2222 106.934 48.2666z"/>
</g>
</svg>