<?xml version="1.0" encoding="UTF-8" standalone="no"?>
<svg
   width="1.5in"
   height="1.5in"
   inkscape:version="1.1 (c68e22c387, 2021-05-23)"
   sodipodi:docname="Musl_libc.svg"
   version="1.1"
   viewBox="0 0 144.00001 144"
   id="svg10"
   xmlns:inkscape="http://www.inkscape.org/namespaces/inkscape"
   xmlns:sodipodi="http://sodipodi.sourceforge.net/DTD/sodipodi-0.dtd"
   xmlns="http://www.w3.org/2000/svg"
   xmlns:svg="http://www.w3.org/2000/svg"
   xmlns:rdf="http://www.w3.org/1999/02/22-rdf-syntax-ns#"
   xmlns:cc="http://creativecommons.org/ns#"
   xmlns:dc="http://purl.org/dc/elements/1.1/">
  <defs
     id="defs12" />
  <metadata
     id="metadata2">
    <rdf:RDF>
      <cc:Work
         rdf:about="">
        <dc:format>image/svg+xml</dc:format>
        <dc:type
           rdf:resource="http://purl.org/dc/dcmitype/StillImage" />
      </cc:Work>
    </rdf:RDF>
  </metadata>
  <sodipodi:namedview
     bordercolor="#666666"
     borderopacity="1"
     gridtolerance="10"
     guidetolerance="10"
     inkscape:current-layer="svg10"
     inkscape:cx="45.90582"
     inkscape:cy="72.618742"
     inkscape:document-rotation="0"
     inkscape:pageopacity="0"
     inkscape:pageshadow="2"
     inkscape:window-height="1009"
     inkscape:window-maximized="1"
     inkscape:window-width="1920"
     inkscape:window-x="-8"
     inkscape:window-y="-8"
     inkscape:zoom="4.4547729"
     objecttolerance="10"
     pagecolor="#ffffff"
     showgrid="false"
     id="namedview4"
     inkscape:pagecheckerboard="true"
     units="in"
     width="1.5in"
     inkscape:document-units="in" />
  <path
     d="M 49.007438,141.75894 C 37.698255,130.22108 31.33684,99.141629 31.33684,55.484861 c 0,-29.72818 0.490619,-33.885967 5.030924,-41.993653 C 47.240377,-6.0088147 65.472275,-4.3664887 88.755885,18.210297 102.93394,31.930996 112.66316,47.314809 112.66316,56.254051 104.40469,69.197675 67.070126,159.31478 49.007438,141.75894 Z M 69.006394,124.50413 C 75.44471,113.32424 80.743978,112.67088 74.245206,101.96892 68.819294,93.008893 61.709477,91.927868 58.112991,99.495041 54.932284,106.16829 54.433349,140.24135 57.499718,140.24135 62.72099,134.83932 65.8832,129.73872 69.006394,124.50413 Z M 79.172184,90.202385 C 76.656722,86.980101 71.854478,82.364957 68.486671,79.95344 c -5.924847,-4.240943 -6.23668,-4.261732 -10.74788,-0.345096 -5.30118,4.594355 -6.423782,9.708433 -1.232785,5.571435 4.864611,-3.866742 13.67912,-1.087262 19.915802,6.278259 6.631671,7.858217 9.001609,6.777192 2.74414,-1.25981 z m -6.590091,1.548776 C 67.717481,86.595506 58.73666,85.951048 56.865655,90.620244 c -1.074787,2.681772 -0.546748,2.806506 2.972819,0.696429 3.409386,-2.041473 5.384334,-1.833585 9.666856,1.016579 7.234549,4.823033 8.024529,4.67751 3.076763,-0.582091 z m 10.3321,-9.874744 C 76.531991,71.960093 67.655113,65.37 60.670031,65.37 c -4.157788,0 -6.361415,1.908425 -8.856088,7.629541 -4.324098,9.937111 -4.116208,15.009612 0.28273,7.21376 4.739879,-8.398729 13.970166,-8.107685 23.283611,0.717218 3.970686,3.721221 7.982951,8.918455 8.897665,11.537861 1.438594,4.074631 1.816952,4.220154 2.557039,0.908477 0.482303,-2.120471 -1.338808,-7.317707 -4.053844,-11.517072 z m 9.167921,3.617274 c 0,-5.883269 -11.413127,-21.204715 -20.560258,-27.857175 C 56.533033,47.034158 47.198799,52.46007 45.119906,73.124273 l -1.120523,10.851826 2.515461,-8.357152 c 2.972818,-9.916324 10.95577,-15.758015 18.502154,-13.575177 7.130606,2.064342 19.250555,13.388076 22.659942,21.204716 3.159917,7.317706 4.46962,7.962163 4.46962,2.245205 z m 3.53412,-16.942983 C 87.466971,49.861454 66.719611,33.209515 55.077806,36.119966 49.631106,37.487878 44.808072,45.994712 42.874701,57.74046 l -1.444831,8.710565 3.347018,-6.964294 c 4.033054,-8.377941 11.226026,-12.51494 18.148742,-10.456835 8.939242,2.660984 21.412606,13.637543 27.025618,23.907278 4.053843,7.317706 5.966424,9.084766 7.317706,6.777194 1.049841,-1.800322 0.351333,-6.548516 -1.640248,-11.122082 z M 48.113512,22.981358 c -6.44457,7.089028 -8.710565,13.450442 -9.79159,27.441397 -1.01034,13.138608 -0.952132,13.346497 1.147551,3.949898 4.199365,-18.77241 14.843301,-25.778281 30.143959,-19.666334 8.128474,3.222284 24.115167,20.082112 29.104511,30.559737 3.617277,7.671118 3.638067,7.691906 4.428047,1.796164 C 102.01643,43.337268 61.083111,10.757939 48.113512,22.981358 Z M 106.15623,46.888635 C 96.156746,25.26814 71.230811,3.8555358 56.054887,3.8555358 c -11.475494,0 -21.620494,14.6146232 -21.204715,30.7676262 1.509118,4.9832 6.006261,-12.600247 14.032532,-16.672726 6.111947,-3.035185 8.689775,-3.180708 16.464838,-0.950055 10.95577,3.159919 30.975517,21.828383 37.420088,34.925414 5.96642,12.223895 9.23029,7.567174 3.47175,-4.926978 z M 34.018613,48.36465 c -0.58209,-2.14126 -1.095576,-0.92095 -1.141311,2.702562 -0.04677,3.638064 0.428251,5.384335 1.056077,3.887531 0.627826,-1.488488 0.665247,-4.448832 0.08503,-6.590093 z"
     fill="#FFFFFF"
     stroke-width="2.2452"
     inkscape:connector-curvature="0"
     id="path6"
     sodipodi:nodetypes="csccccccccccccccccccccccsccccccccccccccccccccccccccccccccccsccccccccccc" />
</svg>
