<?xml version="1.0" encoding="UTF-8" standalone="no"?>
<svg
   width="1.5in"
   height="1.5in"
   viewBox="0 0 144 144.00001"
   version="1.1"
   id="svg8"
   sodipodi:docname="ReStructuredText_Logo.svg"
   inkscape:version="1.1 (c68e22c387, 2021-05-23)"
   xmlns:inkscape="http://www.inkscape.org/namespaces/inkscape"
   xmlns:sodipodi="http://sodipodi.sourceforge.net/DTD/sodipodi-0.dtd"
   xmlns="http://www.w3.org/2000/svg"
   xmlns:svg="http://www.w3.org/2000/svg"
   xmlns:rdf="http://www.w3.org/1999/02/22-rdf-syntax-ns#"
   xmlns:cc="http://creativecommons.org/ns#"
   xmlns:dc="http://purl.org/dc/elements/1.1/">
  <defs
     id="defs12" />
  <sodipodi:namedview
     id="namedview10"
     pagecolor="#ffffff"
     bordercolor="#666666"
     borderopacity="1.0"
     inkscape:pageshadow="2"
     inkscape:pageopacity="0.0"
     inkscape:pagecheckerboard="true"
     showgrid="false"
     inkscape:document-units="in"
     units="in"
     inkscape:zoom="2.8940773"
     inkscape:cx="69.624955"
     inkscape:cy="55.458091"
     inkscape:window-width="1920"
     inkscape:window-height="1009"
     inkscape:window-x="-8"
     inkscape:window-y="-8"
     inkscape:window-maximized="1"
     inkscape:current-layer="Artboard" />
  <!-- Generator: Sketch 64 (93537) - https://sketch.com -->
  <title
     id="title2">Artboard</title>
  <desc
     id="desc4">Created with Sketch.</desc>
  <g
     id="Artboard"
     stroke="none"
     stroke-width="1"
     fill="none"
     fill-rule="evenodd"
     inkscape:groupmode="layer">
    <path
       d="M 3.6992007,107.60202 C 5.9338496,106.891 8.1684984,106.4847 10.504723,106.0784 l 2.640948,-12.188997 c 1.82835,-8.430721 4.164573,-13.814193 8.633871,-19.603965 3.453548,-4.469297 6.196072,-6.602371 8.430721,-6.602371 1.523624,0 2.539373,0.507874 3.656698,1.929924 h 1.422049 c 0.304725,-3.859848 0.812599,-7.110247 1.625199,-11.274818 -1.117324,-0.507876 -1.523624,-0.60945 -2.031499,-0.60945 -3.148823,0 -6.297647,2.437798 -9.954345,7.61812 -3.453548,4.977172 -7.008671,9.85277 -9.548045,15.337817 l 2.640949,-12.798443 c 0.507875,-2.234649 1.218899,-4.570873 1.218899,-6.907097 0,-2.031499 -0.812599,-3.250397 -2.336224,-3.250397 -2.133073,0 -5.992922,2.133073 -13.509468,7.516545 l -2.84409852,2.031499 0.71102462,2.031499 3.2503982,-2.133074 c 2.8440985,-1.828349 3.9614229,-2.336224 4.8755975,-2.336224 1.0157502,0 1.7267742,0.914175 1.7267742,2.234649 0,5.891347 -4.3677229,26.815786 -8.4307206,39.817383 z m 66.0927973,-0.91417 c 2.803117,0 5.339271,-0.76752 7.608461,-2.30256 4.47035,-4.664257 3.994955,-5.954067 3.053396,-10.661861 C 70.733995,79.332753 56.844167,63.196023 46.966615,50.725614 46.766392,50.391909 46.666281,50.058205 46.666281,49.7245 c 0,-1.134595 1.835374,-1.701893 1.101224,-1.701893 v 0 H 70.693 c 0.73415,1.802005 1.334818,3.136823 1.802004,4.004454 1.535041,2.602893 3.203563,3.904342 5.005567,3.904342 1.334817,0 2.235819,-0.266964 2.703006,-0.800891 0.467186,-0.533927 0.700779,-1.301447 0.700779,-2.30256 0,-0.667409 -0.03337,-1.768634 -0.100111,-3.303675 0,-3.00334 -1.08454,-5.389326 -3.253619,-7.15796 -2.169078,-1.768633 -4.621806,-2.65295 -7.358182,-2.65295 v 0 H 45.665167 c -2.335931,0 -4.271416,1.151281 -5.806457,3.453841 -1.53504,2.30256 -2.30256,4.822029 -2.30256,7.558406 0,0.667409 0.133481,1.284762 0.400445,1.852059 C 48.77093,66.9314 62.759809,85.054328 73.095672,98.478717 H 49.369287 c -1.268077,0 -2.269191,-0.867631 -3.00334,-2.602894 -1.535041,-3.537267 -3.303674,-5.305901 -5.305901,-5.305901 -1.268077,0 -2.169079,0.567298 -2.703006,1.701893 -0.533927,1.134595 -0.80089,2.536153 -0.80089,4.204676 0,3.07008 1.001113,5.539489 3.00334,7.408239 9.520792,5.02842 17.337959,2.80312 29.232508,2.80312 z m 48.162322,0.30472 0.30472,-2.8441 -5.99292,-0.30472 c -2.64095,-0.10158 -3.6567,-0.91418 -3.6567,-3.04725 0,-1.01575 0,-1.42205 0.4063,-3.555124 l 9.54805,-56.170945 h 7.41497 c 7.92285,0 11.57954,0.507875 11.88427,1.726774 0.30472,0.8126 0.50787,2.742523 0.4063,3.758273 l -0.4063,6.500796 h 2.8441 l 2.74252,-16.658291 c -9.54804,0.20315 -19.09609,0.304725 -28.64413,0.304725 -9.54805,0 -19.096096,-0.101575 -28.644141,-0.304725 L 84.33301,53.056274 h 2.945673 l 1.523624,-6.094497 c 0.507875,-2.234648 1.2189,-3.859847 1.828349,-4.570872 0.60945,-0.711024 4.469298,-1.320474 8.227571,-1.320474 h 11.376393 l -8.73544,52.920547 c -1.523632,9.243322 -1.828353,9.649622 -5.891351,9.852772 l -5.180323,0.30472 -0.406299,2.8441 c 4.774022,-0.20315 9.64962,-0.30472 14.423643,-0.30472 4.57087,0 9.04017,0.10157 13.50947,0.30472 z"
       id="reStructuredText"
       fill="#FFFFFF"
       fill-rule="nonzero"
       style="display:inline;stroke-width:1"
       sodipodi:nodetypes="ccccscccscccssccccssccccccsscccssscsscsssccscssscccccsccscccccsccccsscccccsc" />
  </g>
  <metadata
     id="metadata14">
    <rdf:RDF>
      <cc:Work
         rdf:about="">
        <dc:title>Artboard</dc:title>
      </cc:Work>
    </rdf:RDF>
  </metadata>
</svg>
