<?xml version="1.0" encoding="UTF-8" standalone="no"?>
<!-- Created with Sodipodi ("http://www.sodipodi.com/") -->

<svg
   version="1.1"
   width="1.5in"
   height="1.5in"
   id="svg586"
   sodipodi:docname="Xfce_logo.svg"
   inkscape:version="1.1 (c68e22c387, 2021-05-23)"
   xmlns:inkscape="http://www.inkscape.org/namespaces/inkscape"
   xmlns:sodipodi="http://sodipodi.sourceforge.net/DTD/sodipodi-0.dtd"
   xmlns:xlink="http://www.w3.org/1999/xlink"
   xmlns="http://www.w3.org/2000/svg"
   xmlns:svg="http://www.w3.org/2000/svg"
   xmlns:rdf="http://www.w3.org/1999/02/22-rdf-syntax-ns#"
   xmlns:cc="http://creativecommons.org/ns#"
   xmlns:dc="http://purl.org/dc/elements/1.1/">
  <sodipodi:namedview
     id="namedview145"
     pagecolor="#ffffff"
     bordercolor="#666666"
     borderopacity="1.0"
     inkscape:pageshadow="2"
     inkscape:pageopacity="0.0"
     inkscape:pagecheckerboard="0"
     showgrid="false"
     inkscape:document-units="in"
     units="in"
     width="1.5in"
     inkscape:zoom="3.087549"
     inkscape:cx="72.225574"
     inkscape:cy="77.245737"
     inkscape:window-width="1356"
     inkscape:window-height="734"
     inkscape:window-x="0"
     inkscape:window-y="0"
     inkscape:window-maximized="1"
     inkscape:current-layer="svg586" />
  <title
     id="title3704">XFCE 4 Logo</title>
  <metadata
     id="metadata12">
    <rdf:RDF>
      <cc:Work
         rdf:about="">
        <dc:format>image/svg+xml</dc:format>
        <dc:type
           rdf:resource="http://purl.org/dc/dcmitype/StillImage" />
        <dc:title>XFCE 4 Logo</dc:title>
        <dc:creator>
          <cc:Agent>
            <dc:title>Savvas Radevic</dc:title>
          </cc:Agent>
        </dc:creator>
        <dc:source>http://www.xfce.org/about/artwork</dc:source>
        <cc:license
           rdf:resource="http://creativecommons.org/licenses/by-sa/4.0/" />
        <dc:description>XFCE logo
* Based on xfce_logo.svg from http://www.xfce.org/about/artwork
* Optimized colours
* Added &quot;X&quot; and &quot;XFCE&quot; text.
</dc:description>
      </cc:Work>
      <cc:License
         rdf:about="http://creativecommons.org/licenses/by-sa/4.0/">
        <cc:permits
           rdf:resource="http://creativecommons.org/ns#Reproduction" />
        <cc:permits
           rdf:resource="http://creativecommons.org/ns#Distribution" />
        <cc:requires
           rdf:resource="http://creativecommons.org/ns#Notice" />
        <cc:requires
           rdf:resource="http://creativecommons.org/ns#Attribution" />
        <cc:permits
           rdf:resource="http://creativecommons.org/ns#DerivativeWorks" />
        <cc:requires
           rdf:resource="http://creativecommons.org/ns#ShareAlike" />
      </cc:License>
    </rdf:RDF>
  </metadata>
  <g
     transform="matrix(0.83164444,0,0,0.83164444,-98.538298,-139.44285)"
     id="g23"
     style="display:inline;fill:#FFFFFF;stroke:#FFFFFF;stroke-width:0.268145">
    <path
       d="m 118.94557,209.56947 c -0.915,0.501 7.2975,5.88275 22.6875,12.21875 15.391,6.336 36.667,22.37675 35,24.96875 -4.999,7.041 -7.94125,15.48225 -5.90625,29.90625 0.367,2.539 -7.54275,6.95025 -6.96875,10.78125 0.48,2.915 8.838,-2.896 9.75,-1.75 0.558,2.057 -4.4665,12.47475 -2.4375,13.21875 1.484,0.441 14.52325,-12.4015 15.28125,-12.1875 21.514,6.504 49.5205,1.61225 50.0625,1.40625 -0.051,-0.113 20.12,9.49175 21.875,8.34375 4.427,-4.794 -8.387,-11.551 -6.25,-14.25 0.937,-1.413 15.62075,5.30275 16.34375,3.46875 1.052,-3.175 -6.817,-9.8375 -8,-11.8125 -1.029,-1.821 -1.23275,-4.75375 1.40625,-6.59375 2.64,-1.84 29.632,-12.16625 28.5,-20.15625 -1.957,-14.518 -34.26025,-15.4655 -34.78125,-16.6875 -0.245,-0.574 1.44825,-20.76025 -7.96875,-17.03125 -5.798,2.158 -1.09375,15.0245 -0.71875,16.6875 0.346,1.531 -2.574,1.3595 -3.125,0.6875 -1.23,-1.502 -5.2725,-14.92525 -10.0625,-12.53125 -6.718,3.704 -0.41,15.28125 -1.75,15.65625 -2.489,1.391 -2.34875,4.7945 -4.34375,7.5625 -3.29,4.715 -27.917,-2.2055 -35.875,-2.6875 -5.826,-0.344 -11.38025,4.4205 -11.90625,3.8125 -7.094,-7.104 -21.76475,-19.48475 -37.84375,-23.59375 -9.017,-2.447 -22.43075,-9.5275 -22.96875,-9.4375 z m 164.21875,13 c -0.53716,0.23183 -2.70444,11.39669 -1.65625,11.90625 0.929,0.695 2.5355,-11.257 1.6875,-11.875 -0.0138,-0.016 -0.0139,-0.0387 -0.0313,-0.0313 z m 7.96875,1.53125 c -1.21841,-0.0224 -7.71547,10.3605 -6.21875,11.46875 0.929,0.695 6.7105,-11.0445 6.3125,-11.4375 -0.0278,-0.023 -0.0544,-0.0305 -0.0937,-0.0313 z m -31.5,12.65625 c 1.53924,0 2.78125,1.40374 2.78125,3.15625 0,1.75251 -1.24201,3.1875 -2.78125,3.1875 -1.53924,0 -2.78125,-1.43499 -2.78125,-3.1875 0,-1.75251 1.24201,-3.15625 2.78125,-3.15625 z m -6.25,1.90625 c 1.184,5.111 3.0165,6.7255 8.5625,6.5625 -7.059,6.473 -11.3335,-4.6035 -8.5625,-6.5625 z m 14.9375,13.375 c 0.43934,-0.0356 0.77562,0.0333 0.96875,0.21875 2.781,1.008 -11.93325,6.3115 -12.03125,5.5625 -0.14787,-0.51625 7.98709,-5.53182 11.0625,-5.78125 z m 1.8125,3.375 c 0.15222,-0.0118 0.29388,0.0358 0.40625,0.0937 2.625,2.608 -8.3105,8.3905 -8.1875,8.1875 -0.88125,-0.5325 5.498,-8.1041 7.78125,-8.28125 z"
       id="path14"
       style="fill:#FFFFFF;fill-rule:evenodd;stroke:#FFFFFF;stroke-width:0.268145" />
  </g>
</svg>
