<?xml version="1.0" standalone="no"?>
<!DOCTYPE svg PUBLIC "-//W3C//DTD SVG 20010904//EN"
 "http://www.w3.org/TR/2001/REC-SVG-20010904/DTD/svg10.dtd">
<svg version="1.0" xmlns="http://www.w3.org/2000/svg"
 width="580.000000pt" height="580.000000pt" viewBox="0 0 580.000000 580.000000"
 preserveAspectRatio="xMidYMid meet">
<metadata>
Created by potrace 1.14, written by Peter Selinger 2001-2017
</metadata>
<g transform="translate(0.000000,580.000000) scale(0.100000,-0.100000)"
fill="#000000" stroke="none">
<path d="M2424 5788 c-8 -13 -8 -92 0 -520 3 -176 1 -238 -7 -239 -7 0 -19 -2
-27 -4 -8 -2 -35 -9 -60 -15 -25 -7 -52 -14 -60 -17 -8 -3 -19 -7 -25 -8 -32
-8 -195 -75 -284 -117 -575 -274 -1009 -804 -1171 -1433 -16 -60 -31 -130 -34
-155 -11 -75 -17 -102 -42 -182 -22 -73 -32 -123 -33 -178 l-1 -25 -133 -1
c-396 -4 -503 -7 -514 -16 -19 -15 -16 -53 5 -70 9 -8 51 -29 92 -48 41 -18
115 -52 165 -75 50 -24 113 -53 140 -65 93 -42 240 -110 285 -133 43 -21 44
-24 61 -97 71 -316 269 -705 471 -925 111 -121 235 -240 291 -280 16 -11 38
-29 50 -39 44 -38 215 -145 317 -198 99 -52 296 -133 335 -138 3 0 23 -7 46
-15 23 -9 51 -17 63 -20 128 -29 164 -36 223 -45 37 -6 95 -20 128 -31 82 -27
144 -37 241 -38 30 -1 33 -7 195 -326 135 -269 168 -327 188 -332 13 -3 31 -1
40 4 17 11 16 -19 7 540 -4 220 -8 206 51 217 185 36 487 166 680 293 188 124
385 300 498 447 17 21 36 45 43 52 7 7 46 62 86 122 169 250 309 607 342 872
3 25 7 52 8 60 1 8 4 20 8 25 9 16 37 118 43 161 4 21 8 46 10 54 4 13 42 16
242 19 395 6 375 4 386 22 5 9 7 27 4 40 -6 20 -37 38 -169 98 -90 41 -206 95
-258 119 -52 24 -135 62 -185 84 -49 23 -91 42 -93 43 -2 1 -5 15 -8 31 -5 26
-19 93 -29 134 -59 242 -217 573 -361 760 -108 139 -284 321 -394 406 -56 44
-180 130 -245 171 -80 51 -313 156 -425 193 -74 24 -142 46 -150 48 -8 3 -22
6 -31 7 -8 1 -37 7 -65 14 -27 6 -62 13 -79 16 -94 13 -122 18 -137 26 -34 18
-146 40 -233 46 -49 3 -90 6 -90 7 0 9 -282 562 -287 564 -5 2 -8 10 -8 18 0
16 -29 65 -45 76 -16 12 -53 9 -61 -4z m566 -812 c30 -5 63 -13 73 -18 10 -5
28 -11 39 -13 11 -3 51 -22 87 -44 285 -170 379 -530 213 -815 -34 -58 -161
-196 -181 -196 -9 0 -33 58 -61 145 -7 22 -17 49 -21 60 -11 25 -30 85 -64
200 -37 122 -61 156 -130 181 -78 29 -192 -64 -181 -148 3 -18 43 -112 89
-208 47 -96 94 -197 106 -225 12 -27 26 -58 32 -68 5 -10 7 -22 5 -26 -3 -5
-47 -9 -98 -9 -259 -1 -472 141 -567 380 -30 74 -36 114 -36 218 1 99 6 150
17 156 4 3 8 13 8 23 0 39 76 167 135 227 151 153 321 210 535 180z m523 -99
c16 -7 27 -20 28 -32 0 -11 2 -42 4 -68 l4 -49 -38 59 c-21 33 -51 72 -66 87
l-28 28 34 -7 c19 -4 46 -12 62 -18z m-1194 -14 c-41 -55 -41 -55 -54 -31 -10
20 -8 24 14 35 40 19 56 17 40 -4z m-93 -30 c-2 -10 1 -31 5 -46 4 -16 3 -40
-3 -58 -10 -29 -20 -32 -24 -6 -12 89 -13 116 -1 120 21 9 25 7 23 -10z m1511
-38 c70 -30 131 -59 135 -63 5 -5 1 -24 -10 -43 -24 -44 -60 -140 -67 -181 -4
-18 -7 -33 -8 -34 -1 -1 -43 18 -92 43 -89 43 -90 44 -92 81 0 20 -4 85 -7
145 -5 73 -4 107 4 107 5 0 67 -25 137 -55z m-1583 -50 c3 -38 9 -85 12 -103
7 -35 -4 -127 -13 -118 -4 3 -12 1 -20 -6 -7 -6 -15 -9 -18 -6 -6 6 -14 69
-20 163 -3 44 -7 89 -9 100 -2 15 5 23 28 31 17 6 32 11 32 10 1 0 5 -32 8
-71z m-106 13 c0 -7 3 -42 6 -78 3 -36 7 -94 9 -128 l4 -64 -39 -24 c-20 -13
-41 -24 -45 -24 -3 0 -15 -8 -26 -17 -20 -17 -20 -17 -13 7 19 72 35 164 41
235 6 78 19 105 50 105 7 0 12 -6 13 -12z m-105 -75 c-2 -21 -5 -54 -7 -73 -1
-20 -13 -78 -26 -130 -25 -102 -27 -105 -141 -195 -81 -64 -185 -170 -261
-265 l-60 -74 6 54 c14 126 20 222 25 367 1 25 43 67 154 156 81 65 284 197
303 197 6 0 9 -15 7 -37z m2023 -4 c26 -16 31 -24 25 -37 -18 -33 -46 -105
-56 -142 -1 -3 -5 -28 -10 -57 l-7 -51 -44 26 c-24 15 -44 32 -44 37 0 41 56
200 82 233 14 16 15 16 54 -9z m129 -81 c37 -28 43 -37 37 -58 -3 -14 -6 -59
-5 -101 1 -124 45 -198 142 -236 37 -14 52 -15 97 -5 30 6 67 20 83 31 l28 20
26 -28 c60 -68 62 -75 37 -139 -33 -84 -100 -226 -104 -221 -2 2 -28 38 -58
79 -29 41 -65 88 -78 105 -53 63 -218 224 -278 269 -64 48 -64 49 -59 91 11
86 59 225 79 225 5 0 29 -15 53 -32z m247 -206 c54 -52 98 -99 98 -104 0 -16
-73 -41 -122 -42 -62 0 -91 17 -117 70 -21 42 -34 153 -23 196 4 16 7 16 35
-4 17 -12 75 -64 129 -116z m-623 3 c167 -89 342 -229 469 -375 91 -104 102
-119 102 -130 0 -6 4 -10 8 -10 9 0 136 -209 131 -215 -2 -1 -35 -6 -74 -9
-141 -11 -264 -53 -371 -127 -83 -57 -206 -193 -227 -252 -10 -28 -102 42
-269 206 -164 161 -218 225 -218 258 0 8 18 25 40 38 56 35 138 117 187 187
81 117 125 252 127 391 0 46 3 83 5 83 2 0 42 -20 90 -45z m-1573 -19 c-5 -46
19 -176 44 -245 24 -62 61 -134 73 -139 4 -2 7 -9 7 -15 0 -21 120 -146 183
-191 97 -68 205 -115 307 -132 39 -6 176 -7 265 -1 29 2 30 1 32 -45 4 -90 17
-73 -342 -443 -134 -137 -278 -287 -322 -331 -43 -45 -89 -87 -101 -94 -13 -6
-51 -13 -83 -15 l-60 -4 7 62 c8 79 8 69 0 159 -22 254 -178 480 -411 596 -80
39 -220 74 -305 74 l-69 0 13 32 c7 18 25 51 40 74 14 23 26 45 26 49 0 10
113 167 165 229 90 108 234 236 360 319 63 42 155 94 167 95 4 0 5 -15 4 -34z
m-721 -158 c-3 -62 -8 -124 -10 -138 -2 -14 -6 -45 -9 -70 -21 -166 -18 -155
-61 -229 -21 -35 -50 -92 -66 -127 -21 -46 -34 -64 -48 -64 -16 0 -19 5 -15
28 2 15 6 32 9 39 26 75 23 314 -5 388 -9 24 -5 34 34 89 24 34 63 83 87 110
24 27 50 57 57 67 28 40 33 20 27 -93z m3192 -145 c4 -10 10 -20 14 -23 4 -3
29 -43 57 -89 45 -77 48 -85 33 -101 -9 -9 -43 -47 -76 -85 -33 -37 -69 -78
-81 -91 l-21 -24 -38 75 -37 74 45 93 c24 51 52 114 62 141 19 49 31 59 42 30z
m-3426 -70 c0 -10 3 -29 6 -43 8 -37 8 -147 0 -215 -20 -168 -21 -170 -96
-205 -46 -22 -62 -26 -57 -15 11 29 19 110 20 210 2 107 3 112 73 228 35 58
52 71 54 40z m3668 -403 c16 -47 33 -96 37 -110 l6 -25 -28 27 c-43 40 -179
115 -235 129 -27 7 -49 18 -49 23 0 6 17 30 38 53 21 23 58 65 83 93 l44 51
37 -78 c20 -43 50 -116 67 -163z m-3843 53 c-3 -43 -8 -89 -11 -103 -13 -66
-17 -80 -24 -80 -4 0 -22 -14 -40 -32 l-33 -32 8 39 c9 50 94 285 102 285 2 0
1 -35 -2 -77z m3493 -147 c247 -40 443 -242 486 -501 30 -177 -42 -388 -174
-513 -129 -122 -261 -173 -438 -167 -105 3 -157 17 -263 68 -67 33 -183 138
-213 193 -39 70 -75 152 -80 179 -3 17 -8 41 -11 55 -6 29 -9 87 -7 143 1 41
7 42 66 17 11 -4 45 -18 75 -30 30 -13 78 -33 105 -45 305 -136 299 -134 351
-121 35 8 64 35 88 84 53 103 -13 188 -169 218 -11 2 -103 29 -205 60 -102 31
-195 58 -207 61 -13 3 -23 9 -23 13 0 27 152 189 178 190 6 0 12 3 12 8 0 13
123 66 193 82 69 16 157 18 236 6z m-2919 -61 c151 -46 299 -171 362 -305 49
-104 62 -161 63 -267 0 -94 -5 -113 -27 -96 -7 5 -29 16 -48 23 -19 7 -127 54
-240 104 -225 99 -257 106 -309 64 -33 -26 -63 -84 -66 -126 -3 -37 19 -76 57
-105 36 -27 45 -30 218 -77 63 -17 122 -34 130 -37 8 -3 20 -7 27 -9 7 -1 43
-12 80 -24 37 -12 74 -23 81 -26 33 -10 -108 -159 -200 -212 -47 -27 -136 -60
-183 -69 -51 -9 -209 -9 -222 0 -7 5 -13 7 -13 3 0 -11 -146 47 -196 79 -77
49 -122 92 -175 169 -84 118 -124 297 -98 431 6 28 13 61 15 75 14 71 78 176
153 249 42 42 94 85 116 96 22 11 42 22 45 26 4 4 107 38 165 54 32 8 218 -6
265 -20z m2076 -517 c0 -143 16 -214 73 -333 72 -151 182 -263 341 -344 87
-45 229 -78 323 -76 28 1 47 -3 47 -9 -1 -20 -85 -166 -150 -259 -57 -80 -248
-286 -320 -342 -83 -66 -286 -192 -295 -184 -2 2 -6 37 -9 78 -15 183 -88 342
-217 469 -166 165 -381 236 -621 208 -63 -8 -63 -8 -58 59 4 66 -7 53 520 595
47 49 111 115 143 148 88 93 114 108 188 111 l35 1 0 -122z m-1520 -457 c72
-47 374 -343 398 -389 14 -26 15 -37 5 -48 -6 -8 -15 -14 -20 -14 -23 0 -161
-136 -207 -204 -78 -115 -123 -260 -125 -398 -1 -38 -4 -68 -7 -68 -3 0 -47
24 -98 53 -286 162 -514 388 -667 661 l-37 66 59 1 c32 0 65 2 73 4 8 2 26 5
40 8 192 37 372 157 470 311 19 30 40 55 46 56 6 0 37 -17 70 -39z m2763 -123
c-6 -18 -12 -43 -15 -54 -5 -26 -33 -94 -38 -94 -2 0 -14 21 -26 47 l-22 47
28 20 c16 12 40 31 54 43 14 12 26 23 27 23 1 0 -3 -15 -8 -32z m-3889 -107
c0 -9 -68 -12 -73 -3 -3 4 -8 22 -12 40 l-7 33 46 -33 c25 -17 46 -34 46 -37z
m3783 -41 c15 -38 27 -74 27 -80 0 -6 -16 -46 -36 -90 -43 -94 -75 -118 -195
-146 -44 -11 -202 -17 -198 -8 2 5 19 32 37 61 30 47 38 53 77 59 51 7 118 58
133 102 5 15 9 49 8 74 -1 46 0 47 39 64 22 9 43 17 47 18 3 1 10 4 14 9 14
14 20 6 47 -63z m-3628 -28 c28 -11 61 -22 74 -24 18 -2 34 -24 72 -95 58
-112 126 -213 212 -316 68 -80 71 -89 85 -193 13 -100 0 -233 -24 -241 -5 -2
-35 22 -67 52 -56 54 -57 56 -43 83 20 39 14 163 -12 239 -12 34 -37 88 -56
121 -38 64 -139 172 -162 172 -8 0 -14 4 -14 8 0 16 -97 39 -149 36 l-52 -4
-30 66 c-46 105 -47 112 -7 116 68 6 125 0 173 -20z m3439 -2 c-1 -14 -2 -32
-3 -40 -2 -25 -44 -69 -81 -84 l-36 -14 36 71 c47 96 49 99 68 95 11 -2 17
-12 16 -28z m-1504 -195 c117 -36 237 -121 309 -219 223 -306 110 -741 -233
-896 -35 -16 -76 -32 -90 -35 -14 -3 -38 -8 -53 -11 -52 -12 -158 -10 -223 3
-169 34 -321 145 -404 297 -54 98 -68 153 -71 284 -4 169 57 316 185 440 49
47 79 67 89 56 9 -10 128 -359 156 -459 25 -90 79 -143 144 -145 37 0 108 38
132 72 36 50 28 91 -51 255 -140 287 -173 365 -158 374 21 13 208 2 268 -16z
m-1915 -34 c99 -47 191 -152 232 -265 30 -85 29 -236 -2 -218 -44 24 -314 383
-315 418 0 5 -9 20 -20 34 -50 64 3 80 105 31z m3495 -108 c-50 -89 -38 -84
-218 -90 -145 -5 -162 -4 -162 11 0 9 3 16 8 16 4 0 14 11 23 25 14 24 21 26
109 30 104 4 137 9 202 30 61 19 61 19 38 -22z m-90 -134 c0 -4 -12 -20 -27
-37 -29 -32 -63 -40 -228 -57 -181 -19 -190 -15 -126 50 l49 50 166 0 c91 0
166 -3 166 -6z m-2910 -128 c19 -16 35 -37 36 -47 23 -148 32 -334 16 -334 -5
0 -30 16 -56 36 -32 24 -45 41 -42 52 24 80 31 257 11 305 -10 24 -3 22 35
-12z m2798 -20 c-16 -20 -40 -32 -78 -42 -66 -16 -61 -14 -82 -23 -9 -4 -22
-9 -30 -10 -81 -15 -193 -74 -245 -128 -36 -37 -72 -114 -80 -171 -3 -21 -6
-46 -7 -55 -2 -9 -9 -18 -17 -20 -8 -3 -26 -13 -41 -23 -35 -25 -54 -24 -74 6
-25 39 -105 74 -158 69 l-45 -5 14 35 c8 20 15 44 15 54 0 13 14 25 43 38 100
44 314 186 401 267 23 21 32 24 63 17 43 -10 224 -7 241 4 7 4 15 5 20 3 4 -3
15 -1 25 2 10 4 27 8 38 8 18 2 18 0 -3 -26z m-2631 -223 c18 -72 42 -158 54
-191 11 -32 19 -60 17 -62 -1 -2 -32 14 -68 36 l-65 39 -1 92 c0 51 -4 128 -8
172 l-7 78 22 -16 c18 -12 30 -44 56 -148z m2468 56 c-77 -73 -282 -234 -297
-234 -24 0 15 116 54 159 43 48 105 82 213 117 55 19 102 33 105 33 3 0 -31
-34 -75 -75z m-2384 -6 c25 -11 41 -34 89 -128 71 -141 93 -180 103 -180 4 0
7 -4 7 -10 0 -5 16 -32 35 -59 19 -26 35 -51 35 -54 0 -7 -176 68 -206 88 -24
15 -74 156 -109 305 -18 81 -18 85 0 67 8 -8 29 -21 46 -29z m143 -89 c3 0 35
-12 70 -29 56 -25 65 -33 71 -62 12 -57 83 -195 132 -254 40 -50 43 -56 22
-50 -13 3 -37 9 -52 13 -29 6 -74 58 -153 178 -55 82 -124 212 -116 219 3 4 9
1 12 -5 4 -6 10 -10 14 -10z m1658 -188 c13 -5 36 -21 51 -37 l28 -28 -57 -29
c-32 -16 -63 -30 -69 -32 -5 -1 -23 -7 -40 -14 -48 -20 -143 -51 -155 -51 -6
0 -1 10 11 23 27 29 85 118 93 145 9 28 89 42 138 23z"/>
</g>
</svg>
