<?xml version="1.0" encoding="utf-8"?>
<!-- Generator: Adobe Illustrator 25.2.3, SVG Export Plug-In . SVG Version: 6.00 Build 0)  -->
<svg version="1.1" id="Layer_1" xmlns="http://www.w3.org/2000/svg" xmlns:xlink="http://www.w3.org/1999/xlink" x="0px" y="0px"
	 viewBox="0 0 288 289.89" style="enable-background:new 0 0 288 289.89;" xml:space="preserve">
<style type="text/css">
	.st0{fill:#383938;}
	.st1{fill:#010101;}
	.st2{fill:#00833E;}
</style>
<g>
	<path class="st0" d="M43.42,120.53c0.25-0.25,0.51-0.47,0.77-0.72c1.45-5.77,3.37-11.39,5.79-16.8c0.03,4.33-0.43,8.83-1.44,13.15
		c0.21-0.15,0.42-0.32,0.63-0.47c0.42-0.28,0.85-0.52,1.28-0.78c0.24-0.15,0.48-0.3,0.72-0.44c1-5.24,1.27-10.65,0.82-15.68
		c1.82-3.63,3.87-7.15,6.13-10.56c1.96,7.22,1.14,15.12-0.81,23.34c0.59-0.21,1.17-0.45,1.76-0.63c0.16-0.05,0.31-0.09,0.47-0.14
		c1.96-8.71,2.59-17.07,0.04-24.73c3.14-4.49,6.63-8.78,10.51-12.79c0.18-0.19,0.37-0.36,0.55-0.54
		c-0.31,8.29-1.11,16.61-2.41,24.78c-2.53,4.05-4.75,8.31-6.62,12.75c0.32-0.08,0.64-0.16,0.97-0.23c0.54-0.11,1.09-0.18,1.63-0.26
		c0.64-0.1,1.28-0.22,1.93-0.28c0.41-0.04,0.82-0.06,1.23-0.09c8.08-17.37,21.86-31.61,38.96-40.26c0.07-1.68,0.2-3.36,0.5-5.03
		c0.04-0.25,0.12-0.5,0.17-0.75c-0.88,0.41-1.77,0.81-2.64,1.25c-0.24-4.46-0.64-9.36-1.2-14.39c1.05-0.46,2.12-0.88,3.18-1.3
		c0.34,4.29,0.79,8.06,1.31,11.61c0.45-1.62,1.06-3.2,1.74-4.75c-0.27-2.28-0.52-4.67-0.73-7.3l-0.03-0.45
		c0.49-0.18,0.99-0.34,1.48-0.52l0.42,2.73c0.11,0.76,0.24,1.58,0.37,2.46c0.54-0.98,1.13-1.94,1.77-2.89l-0.23-1.49l-0.31-0.85
		l-2.01,0.03c1.93-0.68,3.88-1.31,5.85-1.87c0.25-0.28,0.48-0.57,0.74-0.85c0.04-0.04,0.08-0.07,0.11-0.11
		c0.87-0.89,1.76-1.73,2.69-2.51c0.34-0.28,0.69-0.52,1.04-0.79c0.65-0.51,1.29-1.03,1.96-1.48c0.42-0.28,0.86-0.52,1.28-0.79
		c0.63-0.39,1.24-0.79,1.89-1.14c0.47-0.25,0.95-0.46,1.42-0.69c0.63-0.31,1.25-0.63,1.89-0.9c0.5-0.21,1.01-0.37,1.52-0.56
		c0.63-0.23,1.26-0.48,1.9-0.68c0.52-0.16,1.06-0.28,1.59-0.41c0.64-0.17,1.27-0.35,1.92-0.48c0.54-0.11,1.09-0.18,1.63-0.26
		c0.64-0.1,1.28-0.22,1.93-0.28c0.35-0.04,0.69-0.05,1.04-0.08L123.93,0.83c-0.01-0.02-0.04-0.03-0.05-0.05
		c-0.04-0.07-0.11-0.14-0.18-0.2c-0.06-0.05-0.1-0.11-0.17-0.16c-0.09-0.06-0.2-0.11-0.31-0.16c-0.08-0.04-0.16-0.08-0.25-0.11
		c-0.11-0.04-0.24-0.06-0.37-0.08c-0.11-0.02-0.22-0.04-0.34-0.06c-0.04,0-0.07-0.02-0.11-0.02c-0.1-0.01-0.19,0.01-0.29,0.01
		c-0.09,0-0.17-0.01-0.26,0c-0.03,0-0.06,0.01-0.09,0.02c-0.14,0.02-0.27,0.05-0.4,0.08c-0.1,0.03-0.21,0.05-0.31,0.08
		c-0.11,0.04-0.19,0.09-0.29,0.13c-0.09,0.05-0.19,0.09-0.27,0.15c-0.07,0.05-0.12,0.11-0.18,0.17c-0.06,0.07-0.13,0.13-0.17,0.2
		c-0.01,0.02-0.04,0.04-0.05,0.06l0.09,9.2l0.5,28.25c-6.24,1.41-12.27,3.37-18.05,5.78c0,0,0,0,0,0c-0.64,0.27-1.29,0.52-1.92,0.8
		v0c-3.08,1.36-6.09,2.86-9.01,4.49v0c-0.99,0.55-1.96,1.12-2.92,1.7v0C76.11,58.55,65.29,68.35,56.7,79.91l0,0
		c-0.43,0.58-0.87,1.16-1.29,1.75c0,0,0,0,0,0c-1.83,2.57-3.56,5.22-5.16,7.94l0,0c-0.52,0.88-1.01,1.78-1.51,2.68c0,0,0,0,0,0
		c-1.3,2.35-2.55,4.74-3.68,7.2c-1.48,3.22-2.81,6.52-3.98,9.9c-2.49,7.2-4.23,14.74-5.17,22.51c1.73-4.08,4.19-7.93,7.46-11.31
		C43.38,120.56,43.4,120.55,43.42,120.53z M71.33,92.86c0.84-6.62,1.42-13.82,1.74-21.98c0.04-0.25,0.11-0.48,0.18-0.71
		c6.98-6.65,14.75-12.21,23.08-16.61c-0.42,8.15-1.73,13.67-3.62,18.05c-1.1,0.78-2.19,1.57-3.25,2.4
		C82.54,79.37,76.43,85.73,71.33,92.86z M102.39,65.67c-2.25,1.2-4.44,2.47-6.57,3.85c1.43-4.32,2.42-9.72,2.74-17.13
		c0.88-0.44,1.77-0.83,2.66-1.25C101.77,56.24,102.17,61.21,102.39,65.67z"/>
	<path class="st0" d="M129.07,252.89c-0.65-0.33-1.27-0.71-1.9-1.08c-0.42-0.24-0.84-0.46-1.25-0.72c-0.69-0.44-1.36-0.95-2.03-1.44
		c-0.32-0.24-0.66-0.45-0.97-0.7c-0.97-0.77-1.92-1.59-2.83-2.48c-0.25-0.24-0.47-0.51-0.71-0.76c-1.86-0.46-3.7-0.99-5.52-1.56
		c-5.12-6.18-9.29-12.83-12.48-19.93c0.42,0.23,0.85,0.47,1.27,0.69c0.61,0.32,1.23,0.62,1.84,0.93c0.68,0.34,1.35,0.68,2.04,1
		c0.63,0.29,1.27,0.57,1.91,0.85c0.46,0.2,0.9,0.42,1.36,0.61c-0.44-1.89-0.72-3.8-0.87-5.72c-8.77-4.05-16.88-9.62-23.97-16.59
		c-6.8-6.67-12.32-14.3-16.49-22.58c-0.01,0-0.02,0-0.03,0c-0.55-0.02-1.09-0.03-1.64-0.08c-0.63-0.05-1.26-0.15-1.88-0.24
		c-0.54-0.07-1.08-0.13-1.61-0.23c-0.19-0.03-0.38-0.08-0.57-0.11c0.09,0.2,0.18,0.39,0.27,0.58c0.34,0.73,0.67,1.46,1.03,2.17
		c0.29,0.58,0.61,1.15,0.91,1.73c0.37,0.7,0.74,1.41,1.13,2.1c0.32,0.57,0.66,1.12,0.99,1.68c0.41,0.68,0.8,1.37,1.22,2.04
		c0.35,0.55,0.71,1.08,1.07,1.63c0.44,0.66,0.86,1.33,1.31,1.97c0.37,0.54,0.77,1.06,1.15,1.59c0.46,0.63,0.92,1.27,1.4,1.89
		c0.4,0.52,0.82,1.02,1.23,1.53c0.49,0.61,0.98,1.22,1.48,1.82c0.42,0.5,0.86,0.98,1.3,1.47c0.5,0.57,1,1.14,1.52,1.7
		c1.86,6.99,2.04,13.67,0.24,18.69c-2.21-1.82-4.36-3.73-6.43-5.74c1.19-2.19,1.68-4.97,1.28-8.29c-1.32-10.84-10.81-23.15-20-22.09
		c-1.07,0.04-1.99,0.18-2.85,0.36c-1.39-2.93-2.64-5.92-3.75-8.97c2.56-0.39,5.15-0.54,7.67-0.39c-0.1-0.05-0.21-0.09-0.31-0.14
		c-0.46-0.21-0.94-0.4-1.4-0.63c-0.65-0.33-1.27-0.71-1.9-1.08c-0.19-0.11-0.38-0.21-0.57-0.32c-1.41,0.08-2.82,0.25-4.21,0.48
		c-0.45-1.32-0.86-2.65-1.26-3.99c0.19-0.04,0.37-0.06,0.56-0.1c-0.54-0.46-1.09-0.91-1.61-1.41c-0.92-0.89-1.78-1.82-2.59-2.78
		c-6.09-7.22-8.95-16.25-8.64-25.19l-22.96,0.41l-9.2,0.23c-0.02,0.01-0.03,0.04-0.05,0.05c-0.07,0.04-0.13,0.11-0.2,0.18
		c-0.06,0.06-0.11,0.11-0.16,0.18c-0.05,0.08-0.09,0.18-0.14,0.27c-0.04,0.1-0.09,0.18-0.12,0.29c-0.03,0.1-0.05,0.2-0.07,0.31
		c-0.03,0.13-0.05,0.26-0.07,0.4c0,0.03-0.01,0.06-0.02,0.09c0,0.09,0.01,0.17,0.01,0.26c0,0.1-0.01,0.19,0,0.29
		c0,0.04,0.02,0.07,0.02,0.11c0.01,0.12,0.04,0.23,0.07,0.34c0.03,0.13,0.05,0.25,0.1,0.37c0.03,0.09,0.07,0.16,0.11,0.24
		c0.05,0.11,0.1,0.21,0.17,0.3c0.05,0.07,0.11,0.11,0.16,0.17c0.07,0.07,0.13,0.13,0.21,0.17c0.02,0.01,0.03,0.04,0.06,0.05
		l36.28,16.73c0.52,2.63,1.1,5.24,1.81,7.8c0.14,0.49,0.29,0.97,0.44,1.46c0,0,0,0,0,0c0.4,1.37,0.81,2.74,1.26,4.09c0,0,0,0-0.01,0
		c0.21,0.64,0.45,1.26,0.68,1.89c1.51,4.28,3.26,8.44,5.27,12.46c0.04,0.09,0.08,0.18,0.13,0.27c0,0,0-0.01,0.01-0.01
		c7.1,14.08,17.14,26.4,29.3,36.17c0.54,0.43,1.09,0.85,1.64,1.27c0,0,0,0,0,0c2.21,1.71,4.48,3.35,6.83,4.89
		c0.59,0.39,1.2,0.76,1.8,1.14c0,0,0,0,0,0c4.22,2.66,8.62,5.03,13.2,7.1c0.01,0.01,0.02,0.01,0.03,0.01
		c9.92,4.49,20.62,7.53,31.83,8.88c-0.31-0.13-0.62-0.28-0.93-0.42C130,253.31,129.53,253.12,129.07,252.89z M70.62,217.66
		c-7.64-7.8-13.92-16.6-18.68-26.12c2.36-0.38,4.55,0.18,6.24,0.89c6.69,2.85,12.55,11.02,13.34,18.59
		C71.72,212.99,71.61,215.4,70.62,217.66z M81.81,209.76c0.48,0.46,0.97,0.91,1.45,1.36c0.56,0.52,1.12,1.05,1.7,1.56
		c0.5,0.44,1.01,0.86,1.52,1.29c-0.43-0.36-0.86-0.71-1.28-1.07c1.3,7.65,1.68,13.55,1.11,17.92c-1.84-1.26-3.64-2.58-5.41-3.96
		c1.87-4.79,1.88-10.83,0.7-16.99c-0.02-0.13-0.06-0.26-0.08-0.39C81.61,209.58,81.71,209.67,81.81,209.76z M87.74,215.06
		c0.17,0.14,0.34,0.27,0.51,0.4c0.52,0.42,1.06,0.82,1.59,1.23c0.16,0.12,0.31,0.24,0.47,0.36c1.43,6.83,3.24,13.53,5.43,19.52
		c-2.53-1.36-5-2.82-7.42-4.39C89.04,227.93,88.84,222.34,87.74,215.06z M100.65,223.82c-0.6-0.33-1.19-0.66-1.78-1.01
		C99.46,223.15,100.06,223.48,100.65,223.82z M95.21,220.52c0.56,0.37,1.14,0.72,1.72,1.08c0.41,0.26,0.82,0.53,1.23,0.78
		c2.94,7.3,6.8,14,11.86,20.51c-3.98-1.41-7.85-3.08-11.62-4.97c-2.24-5.73-4.11-12.29-5.61-19.07c-0.37-0.26-0.75-0.52-1.12-0.79
		c0.54,0.4,1.1,0.77,1.65,1.16C93.95,219.67,94.57,220.1,95.21,220.52z M80.18,208.11c-0.46-0.47-0.93-0.94-1.38-1.42
		C79.25,207.18,79.72,207.64,80.18,208.11z"/>
	<path class="st0" d="M245.87,169.85c-0.28,0.29-0.58,0.53-0.86,0.81c-0.85,3.34-1.86,6.62-3.03,9.83
		c-0.79-1.75-1.69-3.52-2.69-5.27c-0.16,0.1-0.32,0.19-0.48,0.29c-0.44,0.27-0.87,0.56-1.32,0.81c1.43,2.6,2.51,5.28,3.1,7.84
		c-1.17,2.86-2.46,5.66-3.86,8.38c-1.64,1.11-3.59,2.03-5.81,2.71c-3.93,1.2-8.31,1.51-12.1,0.99c-0.36,0.52-0.71,1.06-1.08,1.58
		c-0.19,0.26-0.4,0.51-0.59,0.78c1.02,0.22,2.07,0.36,3.17,0.36c0.47,0,0.96-0.02,1.44-0.06l0.02,0c4.4-0.43,9-1.11,12.87-2.55
		c-1.18,2.06-2.42,4.08-3.73,6.06c-2.3,0.18-4.9,0.33-7.91,0.44c-3.74,0.13-6.71,0.09-9.12-0.08c-0.51,0.61-1.01,1.23-1.53,1.83
		c1.9-2.17,3.7-4.42,5.39-6.77c3.94-5.46,7.25-11.39,9.9-17.67c-0.32,0.07-0.64,0.16-0.97,0.23c-0.55,0.11-1.1,0.18-1.64,0.26
		c-0.64,0.1-1.27,0.22-1.92,0.28c-0.39,0.04-0.79,0.05-1.18,0.08c-3.95,8.51-9.32,16.4-16.03,23.35
		c-6.76,7.01-14.53,12.7-22.98,16.96c-0.07,1.67-0.21,3.33-0.5,4.98c-0.04,0.25-0.12,0.5-0.17,0.75c0.95-0.44,1.91-0.88,2.85-1.35
		c3.9-1.97,7.64-4.21,11.19-6.7c2.37-1.66,4.65-3.43,6.84-5.31c0.85-0.73,1.68-1.48,2.5-2.24c1.1,0.49,2.29,0.77,3.58,0.74
		c4.25,0.58,9.21-0.26,14.06-1.08c0.45-0.08,0.91-0.15,1.37-0.23c-0.81,0.99-1.63,1.97-2.47,2.92c-0.51,0.12-1.01,0.22-1.53,0.36
		c-15.42,3.89-22.55,7.06-23.37,20.2c-1.77,1.05-3.56,2.05-5.39,3c-1.07-1.84-2.36-3.21-3.87-4.07c-2.06-1.17-4.51-1.42-7.27-0.79
		c-0.32,0.87-0.68,1.72-1.06,2.57c0,0,0.01,0,0.01,0c2.95-1.02,5.33-0.97,7.26,0.14c1.14,0.65,2.12,1.71,2.97,3.13
		c-5.29,2.59-10.84,4.73-16.59,6.39c-0.26,0.29-0.5,0.6-0.77,0.88c-0.9,0.93-1.84,1.8-2.81,2.62c-0.32,0.27-0.66,0.49-0.98,0.75
		c-0.67,0.52-1.33,1.06-2.02,1.53c-0.41,0.28-0.84,0.51-1.26,0.77c-0.63,0.4-1.26,0.81-1.91,1.16c-0.46,0.25-0.94,0.45-1.41,0.68
		c-0.63,0.31-1.25,0.63-1.89,0.9c-0.5,0.21-1.01,0.37-1.51,0.56c-0.63,0.23-1.26,0.48-1.91,0.68c-0.52,0.16-1.06,0.28-1.59,0.41
		c-0.64,0.17-1.27,0.35-1.92,0.48c-0.54,0.11-1.09,0.18-1.64,0.26c-0.64,0.1-1.28,0.22-1.92,0.28c-0.56,0.06-1.12,0.07-1.67,0.11
		c-0.11,0.01-0.22,0.02-0.33,0.02l16.27,32.23c0.01,0.02,0.04,0.03,0.05,0.05c0.04,0.07,0.11,0.14,0.18,0.2
		c0.06,0.05,0.1,0.11,0.17,0.16c0.09,0.06,0.2,0.11,0.31,0.16c0.08,0.04,0.16,0.08,0.25,0.11c0.11,0.04,0.24,0.06,0.37,0.08
		c0.11,0.02,0.22,0.04,0.34,0.06c0.04,0,0.07,0.02,0.11,0.02c0.1,0.01,0.19-0.01,0.29-0.01c0.09,0,0.17,0.01,0.26,0
		c0.03,0,0.06-0.01,0.09-0.02c0.14-0.02,0.27-0.05,0.4-0.08c0.11-0.03,0.21-0.05,0.31-0.08c0.11-0.04,0.19-0.09,0.29-0.13
		c0.09-0.05,0.19-0.09,0.27-0.15c0.07-0.05,0.12-0.11,0.18-0.17c0.06-0.07,0.13-0.13,0.17-0.2c0.01-0.02,0.04-0.04,0.05-0.06
		l-0.09-9.2l-0.48-27.45c10.58-2.25,20.59-6.03,29.79-11.09v0c0.77-0.42,1.53-0.85,2.29-1.29l0,0c1.17-0.68,2.34-1.36,3.48-2.09v0
		c0.96-0.61,1.89-1.25,2.83-1.88l0,0c2.48-1.68,4.89-3.46,7.23-5.33c0,0,0,0,0,0c1.53-1.23,3.03-2.5,4.49-3.81c0,0,0,0,0,0
		c2.15-1.92,4.23-3.91,6.22-6l0,0c0.81-0.85,1.6-1.71,2.38-2.59l0,0c0.89-1,1.76-2.02,2.62-3.05l0,0c0.66-0.79,1.32-1.58,1.95-2.39
		l0,0c0.74-0.95,1.47-1.91,2.18-2.88l0,0c0.51-0.69,1-1.4,1.5-2.11c1.31-1.87,2.56-3.79,3.75-5.75c0.11-0.18,0.22-0.36,0.33-0.54
		l0,0c5.25-8.74,9.31-18.28,11.97-28.37l0,0c0.21-0.81,0.45-1.61,0.64-2.43v0c0.54-2.27,0.99-4.57,1.38-6.89v0
		c0.16-0.95,0.32-1.89,0.46-2.85l0,0c0.09-0.6,0.17-1.19,0.25-1.79l0,0c0.03-0.22,0.05-0.45,0.07-0.67
		C251.6,162.63,249.14,166.48,245.87,169.85z M218.81,204.92c1.31,0,2.73-0.03,4.26-0.08c2.36-0.08,4.46-0.2,6.4-0.33
		c-0.9,1.28-1.82,2.54-2.78,3.77c-1.6,0.2-3.19,0.44-4.75,0.68c-3.8,0.59-7.72,1.16-11.81,1.15c-0.28,0.04-0.55,0.06-0.81,0.06
		c-0.66-0.1-1.29-0.25-1.9-0.43c1.69-1.65,3.34-3.35,4.89-5.12C214.14,204.82,216.27,204.92,218.81,204.92z M219.22,217
		c-5.81,6.04-12.35,11.38-19.48,15.88C200.88,222.82,206.81,220.21,219.22,217z"/>
	<path class="st0" d="M229.13,184.58c-0.91,1.92-2.74,3.13-5.35,3.58c-0.43,0.78-0.84,1.57-1.29,2.34c5.28-0.31,7.6-2.84,8.61-4.97
		c0.9-1.91,1.08-4.23,0.63-6.59c-0.52,0.19-1.03,0.39-1.56,0.55c-0.18,0.06-0.36,0.1-0.55,0.16
		C229.92,181.45,229.79,183.19,229.13,184.58z"/>
	<path class="st0" d="M287.99,144.13c0-0.1,0.01-0.19,0-0.29c0-0.04-0.02-0.07-0.02-0.11c-0.01-0.12-0.04-0.23-0.07-0.34
		c-0.03-0.13-0.05-0.25-0.1-0.37c-0.03-0.09-0.07-0.16-0.11-0.24c-0.05-0.11-0.1-0.21-0.17-0.3c-0.05-0.07-0.11-0.11-0.16-0.17
		c-0.07-0.07-0.13-0.13-0.21-0.17c-0.02-0.01-0.04-0.04-0.06-0.05l-34.6-15.96c-0.02-0.12-0.04-0.25-0.06-0.37c0,0,0,0,0,0
		c-0.3-1.69-0.66-3.37-1.04-5.03v0c-0.67-2.91-1.45-5.78-2.34-8.6v0c-0.31-0.99-0.63-1.98-0.97-2.96c-0.93-2.68-1.96-5.3-3.09-7.88
		c-3.38-7.73-7.63-14.98-12.62-21.65c-6.42-8.58-14.07-16.16-22.68-22.52c0,0,0-0.01,0-0.01c-0.58-0.43-1.19-0.82-1.78-1.24
		c-1.3-0.92-2.62-1.83-3.96-2.7c0,0,0-0.01,0.01-0.01c-0.44-0.29-0.9-0.55-1.35-0.83c-1.42-0.89-2.86-1.75-4.33-2.58
		c0,0,0-0.01,0.01-0.01c-0.39-0.22-0.78-0.42-1.17-0.63c-11.97-6.55-25.26-10.97-39.38-12.66c0.34,0.14,0.67,0.3,1.01,0.46
		c0.47,0.21,0.94,0.4,1.4,0.63c0.64,0.33,1.26,0.7,1.88,1.07c0.42,0.25,0.86,0.47,1.27,0.73c0.67,0.43,1.32,0.92,1.97,1.4
		c0.34,0.25,0.7,0.47,1.03,0.74c0.94,0.74,1.84,1.53,2.72,2.38c0.04,0.03,0.08,0.06,0.11,0.1c0.25,0.24,0.46,0.51,0.7,0.75
		c2.06,0.51,4.1,1.09,6.12,1.73l0.3,4.19c0.08,1.14,0.16,2.29,0.24,3.43c0.34,0.67,0.69,1.34,0.98,2.03
		c0.74,1.75,1.31,3.56,1.77,5.39c-0.14-3.48-0.38-7-0.63-10.5l-0.26-3.76c5.11,1.75,10.05,3.9,14.8,6.42
		c-2.15,3.74-3.88,7.76-4.7,12.27c-0.04,0.2-0.05,0.39-0.09,0.58c-0.61-0.34-1.21-0.68-1.83-1c-0.59-0.31-1.19-0.61-1.79-0.9
		c-0.7-0.35-1.39-0.7-2.09-1.03c-0.61-0.28-1.23-0.55-1.84-0.82c-0.47-0.21-0.94-0.43-1.41-0.63c0.06,0.27,0.15,0.54,0.21,0.81
		c0.25,1.17,0.43,2.34,0.57,3.52c0.05,0.46,0.05,0.93,0.09,1.39c8.77,4.05,16.88,9.62,23.97,16.59c6.8,6.67,12.32,14.3,16.49,22.58
		c0.01,0,0.02,0,0.03,0c0.55,0.02,1.09,0.03,1.64,0.08c0.63,0.05,1.26,0.15,1.89,0.24c0.54,0.07,1.08,0.13,1.61,0.23
		c0.19,0.03,0.38,0.08,0.57,0.11c-0.09-0.19-0.17-0.37-0.26-0.56c0.09,0.19,0.18,0.37,0.26,0.56c0.44,0.09,0.88,0.21,1.32,0.31
		c0.05,0.01,0.1,0.02,0.15,0.03c3.05-3.59,6.06-7,8.84-10.08c3.09,6,5.56,12.27,7.41,18.74c0.26,0.24,0.55,0.45,0.8,0.7
		c3.68,3.56,6.47,7.7,8.35,12.14c1.88,4.44,2.87,9.17,2.94,13.91c0.02,1.11-0.02,2.23-0.1,3.34l21.77-0.38l9.2-0.23
		c0.02-0.01,0.03-0.04,0.05-0.05c0.07-0.04,0.13-0.11,0.2-0.18c0.06-0.06,0.11-0.11,0.16-0.18c0.05-0.08,0.09-0.18,0.14-0.27
		c0.04-0.09,0.09-0.18,0.12-0.29c0.03-0.1,0.05-0.2,0.07-0.31c0.03-0.13,0.05-0.26,0.07-0.4c0-0.03,0.01-0.06,0.02-0.09
		C288,144.31,287.99,144.22,287.99,144.13z M221.33,75.66c-2.41,1.68-5.68,2.89-9.56,1.67c-3.89-2.06-4.63-8.12-3.7-14.01
		C212.8,67,217.23,71.13,221.33,75.66z M198.98,56.99c-2.31,4.35-3.74,8.94-4.13,13.47c-0.28-0.19-0.56-0.37-0.84-0.56
		c-0.55-0.36-1.11-0.7-1.67-1.05c-0.63-0.4-1.26-0.8-1.91-1.18c0.06-0.42,0.1-0.85,0.18-1.26c0.72-4.28,2.38-8.13,4.47-11.72
		C196.4,55.42,197.69,56.2,198.98,56.99z M190.35,67.62c-0.57-0.34-1.15-0.66-1.73-0.98C189.2,66.96,189.78,67.28,190.35,67.62z
		 M218.55,93.76c-0.37-0.52-0.75-1.03-1.13-1.55c-0.47-0.64-0.93-1.29-1.42-1.93c-0.39-0.51-0.8-1-1.2-1.5
		c-0.5-0.62-0.99-1.24-1.51-1.85c-0.41-0.49-0.84-0.96-1.27-1.43c-0.53-0.6-1.05-1.2-1.6-1.78c-0.44-0.47-0.89-0.92-1.34-1.37
		c-0.55-0.57-1.1-1.14-1.67-1.69c-0.46-0.45-0.94-0.88-1.41-1.32c-0.58-0.54-1.15-1.08-1.75-1.61c-0.48-0.43-0.98-0.83-1.47-1.25
		c-0.6-0.51-1.2-1.03-1.82-1.52c-0.5-0.4-1.02-0.79-1.53-1.18c-0.63-0.48-1.25-0.96-1.89-1.43c-0.53-0.38-1.07-0.75-1.6-1.12
		c0.32,0.22,0.65,0.43,0.97,0.66c0.22-4.56,1.62-9.27,3.96-13.73c1.71,1.11,3.39,2.27,5.04,3.49c-1.2,5.66-1.13,12.02,2.28,15.4
		c2.21,2.24,4.72,3.36,7.32,3.36c2.44,0,4.97-1,7.4-2.96c1.47,1.71,2.91,3.46,4.28,5.28c-0.06,0.16-0.12,0.32-0.18,0.48
		c-1.75,4.64-3.66,9.64-6.21,13.97c0.04,0.06,0.08,0.13,0.12,0.2c-0.34-0.54-0.7-1.07-1.05-1.6C219.44,95.1,219,94.42,218.55,93.76z
		 M226.19,107.03c-0.33-0.71-0.65-1.42-1-2.11c-0.29-0.57-0.6-1.13-0.9-1.7c-0.38-0.71-0.74-1.43-1.14-2.13
		c-0.32-0.56-0.65-1.11-0.98-1.66c0.01,0.02,0.02,0.03,0.03,0.05c2.78-4.45,4.81-9.64,6.66-14.52c2.57,3.58,4.89,7.28,6.96,11.11
		C232.81,99.38,229.51,103.1,226.19,107.03z"/>
	<path class="st1" d="M167.61,110.31c-1.29-1.25-3.56-3.37-5.56-7.69c-3.3,1.93-6.82,3.31-10.46,4.13c1.69,7.33-2.76,10.4-2.76,10.4
		l-16.14,16.67l-16.14,16.67c0,0-2.89,4.49-10.18,3.12c-0.73,3.66-2.02,7.23-3.86,10.59c4.34,1.86,6.52,4.04,7.81,5.29L122.21,181
		c1.19,1.16,3.23,3.03,5.12,6.72c3.37-1.95,6.98-3.34,10.7-4.14c-1.1-6.63,2.96-9.42,2.96-9.42l16.14-16.67l16.14-16.67
		c0,0,2.68-4.2,9.42-3.26c0.66-3.74,1.92-7.38,3.74-10.82c-3.78-1.77-5.73-3.75-6.93-4.91L167.61,110.31z M173.95,133.92
		l-40.17,41.5c-2.27,2.34-6.01,2.4-8.35,0.14l-9.21-8.91c-2.34-2.27-2.4-6.01-0.14-8.35l40.17-41.5c2.27-2.34,6.01-2.41,8.35-0.14
		l9.21,8.91C176.16,127.84,176.22,131.58,173.95,133.92z"/>
	<path class="st1" d="M75.4,140.95c0,0-6.13-3.22-9.43,3.93c-3.29,7.15,4.68,10.15,6.99,10.39c1.97,0.2,14.72,4.21,22.6,6.62
		c1.99-3.28,3.3-6.84,3.92-10.51C89.67,147.6,75.4,140.95,75.4,140.95z"/>
	<path class="st1" d="M152.17,73.43c-0.31-2.3-3.57-10.17-10.61-6.65c-7.04,3.52-3.62,9.55-3.62,9.55s7.06,13.95,11.17,23.63
		c3.72-0.72,7.23-2.15,10.4-4.2C156.84,87.96,152.44,75.4,152.17,73.43z"/>
	<path class="st1" d="M214.42,150.37c0,0,6.13,3.22,9.43-3.93c3.29-7.15-4.68-10.15-6.99-10.39c-2.05-0.21-15.77-4.54-23.53-6.9
		c-1.9,3.3-3.12,6.87-3.66,10.53C199.49,143.41,214.42,150.37,214.42,150.37z"/>
	<path class="st1" d="M137.65,217.88c0.31,2.3,3.58,10.17,10.61,6.65c7.04-3.52,3.62-9.55,3.62-9.55s-7.52-14.86-11.56-24.54
		c-3.7,0.69-7.2,2.08-10.37,4.09C132.57,202.19,137.37,215.83,137.65,217.88z"/>
	<path class="st2" d="M164.61,116.66c-2.34-2.27-6.08-2.21-8.35,0.14l-40.17,41.5c-2.27,2.34-2.21,6.08,0.14,8.35l9.21,8.91
		c2.34,2.27,6.08,2.21,8.35-0.14l40.17-41.5c2.27-2.34,2.21-6.08-0.14-8.35L164.61,116.66z M168.55,133.87l-35,36.16
		c-1.73,1.79-4.58,1.83-6.37,0.1l-5.6-5.42c-1.79-1.73-1.84-4.58-0.1-6.37l35-36.16c1.73-1.79,4.58-1.83,6.37-0.1l5.6,5.42
		C170.24,129.23,170.29,132.09,168.55,133.87z"/>
	<path class="st1" d="M162.85,122.08c-1.79-1.73-4.64-1.68-6.37,0.1l-35,36.16c-1.73,1.79-1.68,4.64,0.1,6.37l5.6,5.42
		c1.79,1.73,4.64,1.68,6.37-0.1l35-36.16c1.73-1.79,1.68-4.64-0.1-6.37L162.85,122.08z"/>
	<path class="st2" d="M41.62,170.26c0.81,0.96,1.67,1.89,2.59,2.78c0.52,0.5,1.07,0.94,1.61,1.41c0.41,0.35,0.8,0.73,1.22,1.07
		c0.32,0.25,0.67,0.47,0.99,0.71c0.66,0.49,1.32,0.99,2.01,1.43c0.41,0.26,0.84,0.48,1.25,0.72c0.63,0.37,1.25,0.75,1.9,1.08
		c0.46,0.23,0.93,0.42,1.4,0.63c0.1,0.05,0.21,0.09,0.31,0.14c0.52,0.23,1.04,0.49,1.57,0.7c0.49,0.19,1,0.34,1.49,0.51
		c0.63,0.21,1.25,0.44,1.88,0.62c0.52,0.15,1.04,0.25,1.56,0.37c0.44,0.1,0.88,0.23,1.32,0.31c0,0,0,0,0,0
		c0.19,0.04,0.38,0.08,0.57,0.11c0.53,0.1,1.07,0.15,1.61,0.23c0.63,0.09,1.25,0.19,1.88,0.24c0.55,0.05,1.09,0.05,1.64,0.08
		c0.01,0,0.02,0,0.03,0c0.52,0.02,1.03,0.07,1.54,0.07c9.7,0,19.38-3.78,26.66-11.3c2.36-2.44,4.28-5.14,5.84-7.97
		c1.84-3.36,3.14-6.92,3.86-10.59c2.37-11.94-1.16-24.8-10.56-33.9c-7.2-6.97-16.51-10.44-25.8-10.44c-0.89,0-1.78,0.07-2.66,0.13
		c-0.41,0.03-0.82,0.04-1.23,0.09c-0.65,0.07-1.29,0.18-1.93,0.28c-0.54,0.09-1.09,0.15-1.63,0.26c-0.65,0.13-1.28,0.31-1.92,0.48
		c-0.37,0.1-0.75,0.17-1.11,0.28c-0.16,0.05-0.31,0.09-0.47,0.14c-0.64,0.2-1.27,0.45-1.91,0.68c-0.5,0.19-1.02,0.35-1.51,0.56
		c-0.64,0.27-1.26,0.59-1.89,0.9c-0.47,0.23-0.96,0.44-1.42,0.69c-0.64,0.35-1.26,0.76-1.89,1.15c-0.42,0.26-0.86,0.5-1.28,0.78
		c-0.68,0.46-1.33,0.99-1.98,1.5c-0.34,0.26-0.69,0.5-1.02,0.78c-0.95,0.8-1.87,1.65-2.75,2.56c-0.02,0.02-0.04,0.03-0.06,0.05
		c-3.27,3.38-5.73,7.23-7.46,11.31c-1.79,4.22-2.76,8.69-2.92,13.19C32.67,154.02,35.53,163.04,41.62,170.26z M48.53,125.59
		c5.68-5.87,13.32-9.11,21.49-9.11c7.8,0,15.18,2.99,20.79,8.42c7.34,7.11,10.24,17.1,8.66,26.49c-0.62,3.67-1.93,7.23-3.92,10.51
		c-1.13,1.87-2.47,3.65-4.06,5.29c-5.68,5.87-13.32,9.11-21.49,9.11c-7.8,0-15.19-2.99-20.79-8.42c-5.74-5.55-8.97-13.01-9.1-21
		C39.99,138.88,42.98,131.33,48.53,125.59z"/>
	<path class="st2" d="M137.53,34.02c-0.54,0.09-1.09,0.15-1.63,0.26c-0.65,0.13-1.28,0.31-1.92,0.48c-0.53,0.14-1.06,0.25-1.59,0.41
		c-0.64,0.2-1.27,0.45-1.9,0.68c-0.51,0.19-1.02,0.35-1.52,0.56c-0.64,0.27-1.26,0.59-1.89,0.9c-0.47,0.23-0.96,0.44-1.42,0.69
		c-0.64,0.35-1.26,0.75-1.89,1.14c-0.43,0.27-0.87,0.5-1.28,0.79c-0.67,0.46-1.32,0.98-1.96,1.48c-0.34,0.27-0.7,0.51-1.04,0.79
		c-0.93,0.78-1.83,1.62-2.69,2.51c-0.04,0.04-0.08,0.07-0.11,0.11c-0.26,0.27-0.49,0.57-0.74,0.85c-1.21,1.33-2.31,2.73-3.3,4.18
		c-0.64,0.94-1.22,1.9-1.77,2.89c-0.22,0.4-0.47,0.78-0.67,1.18c-0.31,0.62-0.57,1.26-0.84,1.9c-0.68,1.56-1.28,3.14-1.74,4.75
		c-0.26,0.93-0.46,1.88-0.65,2.83c-0.05,0.25-0.12,0.5-0.17,0.75c-1.45,8.21-0.12,16.8,3.96,24.28c0.58,1.07,1.22,2.11,1.92,3.13
		c1.39,2.03,3.01,3.96,4.85,5.74c7.2,6.97,16.51,10.44,25.8,10.44c2.77,0,5.53-0.34,8.24-0.96c3.64-0.83,7.16-2.21,10.46-4.13
		c2.86-1.67,5.55-3.71,7.96-6.2c7.67-7.92,11.06-18.38,10.3-28.57c-0.03-0.46-0.04-0.93-0.09-1.39c-0.13-1.18-0.32-2.36-0.57-3.52
		c-0.49-2.33-1.21-4.62-2.15-6.84c-1.88-4.44-4.67-8.58-8.35-12.14c-0.04-0.03-0.07-0.06-0.11-0.1c-0.88-0.84-1.78-1.64-2.72-2.38
		c-0.33-0.26-0.69-0.49-1.03-0.74c-0.65-0.48-1.3-0.97-1.97-1.4c-0.42-0.27-0.85-0.49-1.27-0.73c-0.62-0.36-1.24-0.74-1.88-1.07
		c-0.46-0.23-0.93-0.42-1.4-0.63c-0.34-0.15-0.67-0.31-1.01-0.46c-0.29-0.12-0.58-0.26-0.87-0.38c-0.49-0.19-0.99-0.34-1.49-0.51
		c-0.63-0.21-1.25-0.44-1.89-0.63c-0.52-0.15-1.04-0.25-1.56-0.37c-0.63-0.15-1.26-0.31-1.89-0.43c-0.53-0.1-1.07-0.15-1.6-0.23
		c-0.63-0.09-1.26-0.19-1.89-0.24c-0.54-0.05-1.09-0.05-1.64-0.08c-0.52-0.02-1.05-0.07-1.57-0.07c-0.1,0-0.2,0.01-0.3,0.01
		c-0.64,0.01-1.28,0.06-1.92,0.09c-0.21,0.01-0.42,0.01-0.63,0.03c-0.35,0.03-0.69,0.04-1.04,0.08
		C138.81,33.8,138.17,33.92,137.53,34.02z M164.14,49.14c5.74,5.55,8.97,13.01,9.1,21c0.13,7.99-2.86,15.54-8.41,21.28
		c-1.62,1.68-3.42,3.11-5.32,4.34c-3.17,2.05-6.68,3.48-10.4,4.2c-1.88,0.36-3.8,0.56-5.76,0.56c-7.8,0-15.18-2.99-20.79-8.42
		c-11.85-11.47-12.16-30.43-0.69-42.28c5.68-5.87,13.32-9.11,21.49-9.11C151.15,40.72,158.54,43.71,164.14,49.14z"/>
	<path class="st2" d="M256.31,143.45c-0.08-4.75-1.06-9.48-2.94-13.91c-1.88-4.44-4.67-8.58-8.35-12.14
		c-0.26-0.25-0.54-0.46-0.8-0.7c-0.67-0.61-1.33-1.22-2.03-1.77c-0.32-0.25-0.66-0.47-0.99-0.71c-0.66-0.49-1.32-0.99-2.01-1.43
		c-0.41-0.26-0.84-0.48-1.25-0.72c-0.63-0.37-1.25-0.75-1.9-1.08c-0.46-0.23-0.93-0.42-1.39-0.63c-0.63-0.29-1.25-0.59-1.89-0.84
		c-0.49-0.19-0.99-0.34-1.49-0.51c-0.63-0.21-1.25-0.44-1.88-0.62c-0.52-0.15-1.04-0.25-1.56-0.37c-0.44-0.1-0.88-0.23-1.32-0.31
		c0,0,0,0,0,0c-0.19-0.04-0.38-0.08-0.57-0.11c-0.53-0.1-1.07-0.15-1.61-0.23c-0.63-0.09-1.26-0.19-1.89-0.24
		c-0.55-0.05-1.09-0.05-1.64-0.08c-0.01,0-0.02,0-0.03,0c-0.51-0.02-1.03-0.07-1.54-0.07c-9.7,0-19.38,3.78-26.66,11.3
		c-2.5,2.59-4.53,5.46-6.13,8.49c-1.82,3.43-3.08,7.08-3.74,10.82c0,0,0,0.01,0,0.01c-1.04,5.86-0.65,11.92,1.14,17.63
		c1.43,4.57,3.77,8.91,7,12.74c0.81,0.96,1.67,1.89,2.59,2.78c7.2,6.97,16.51,10.44,25.8,10.44c0.9,0,1.81-0.07,2.71-0.13
		c0.39-0.03,0.79-0.04,1.18-0.08c0.64-0.07,1.28-0.18,1.92-0.28c0.55-0.09,1.1-0.15,1.64-0.26c0.64-0.13,1.28-0.31,1.91-0.48
		c0.35-0.09,0.7-0.16,1.04-0.26c0.18-0.05,0.36-0.1,0.55-0.16c0.64-0.2,1.27-0.45,1.91-0.68c0.51-0.19,1.02-0.35,1.51-0.56
		c0.64-0.27,1.27-0.59,1.89-0.9c0.47-0.23,0.95-0.43,1.41-0.68c0.65-0.35,1.28-0.76,1.91-1.16c0.16-0.1,0.32-0.19,0.48-0.29
		c0.25-0.16,0.52-0.31,0.77-0.48c0.69-0.47,1.35-1,2.02-1.53c0.32-0.25,0.66-0.48,0.98-0.75c0.97-0.82,1.91-1.69,2.81-2.62
		c3.56-3.68,6.21-7.91,7.95-12.4c0.87-2.25,1.51-4.56,1.92-6.91C256.16,148.2,256.35,145.82,256.31,143.45z M219.21,173.95
		c-7.8,0-15.19-2.99-20.79-8.42c-7.18-6.95-10.09-16.65-8.74-25.86c0.54-3.66,1.76-7.23,3.66-10.53c1.2-2.09,2.65-4.08,4.4-5.89
		c5.68-5.87,13.32-9.11,21.49-9.11c7.8,0,15.18,2.99,20.79,8.42c11.85,11.47,12.16,30.43,0.69,42.28
		C235.01,170.72,227.38,173.95,219.21,173.95z"/>
	<path class="st2" d="M148.1,256.8c0.56-0.03,1.12-0.05,1.67-0.11c0.64-0.07,1.28-0.18,1.92-0.28c0.55-0.09,1.1-0.15,1.64-0.26
		c0.64-0.13,1.28-0.31,1.92-0.48c0.53-0.14,1.06-0.25,1.59-0.41c0.64-0.2,1.27-0.45,1.91-0.68c0.5-0.19,1.02-0.35,1.51-0.56
		c0.64-0.27,1.27-0.59,1.89-0.9c0.47-0.23,0.95-0.43,1.41-0.68c0.65-0.35,1.28-0.76,1.91-1.16c0.42-0.26,0.85-0.49,1.26-0.77
		c0.69-0.47,1.35-1,2.02-1.53c0.32-0.25,0.66-0.48,0.98-0.75c0.97-0.82,1.91-1.69,2.81-2.62c4.45-4.6,7.48-10.06,9.08-15.82
		c0.25-0.91,0.44-1.82,0.62-2.74l0,0c0.05-0.25,0.13-0.5,0.17-0.75c0.41-2.35,0.6-4.72,0.56-7.1c-0.04-2.37-0.3-4.74-0.79-7.07
		c-1.23-5.83-3.86-11.41-7.91-16.2c-0.81-0.96-1.67-1.89-2.59-2.78c-7.2-6.97-16.51-10.44-25.8-10.44c-2.64,0-5.27,0.31-7.86,0.86
		c-3.72,0.8-7.33,2.19-10.7,4.14c-2.91,1.68-5.65,3.76-8.1,6.29c-6.23,6.44-9.67,14.56-10.33,22.85c-0.09,1.18-0.13,2.37-0.11,3.56
		c0.01,0.72,0.08,1.44,0.14,2.16c0.14,1.93,0.43,3.84,0.87,5.72c1.49,6.37,4.69,12.41,9.57,17.4c0.24,0.25,0.46,0.52,0.71,0.76
		c0.91,0.88,1.86,1.71,2.83,2.48c0.32,0.25,0.65,0.46,0.97,0.7c0.67,0.49,1.34,1,2.03,1.44c0.41,0.26,0.84,0.48,1.25,0.72
		c0.63,0.37,1.26,0.75,1.9,1.08c0.46,0.23,0.93,0.42,1.39,0.63c0.31,0.14,0.62,0.29,0.93,0.42c0.32,0.14,0.63,0.29,0.96,0.42
		c0.49,0.19,0.99,0.34,1.49,0.51c0.63,0.22,1.25,0.45,1.89,0.63c0.52,0.15,1.04,0.25,1.56,0.37c0.63,0.15,1.25,0.31,1.88,0.43
		c0.54,0.1,1.08,0.15,1.61,0.23c0.63,0.09,1.25,0.19,1.88,0.24c0.55,0.05,1.09,0.05,1.64,0.08c0.52,0.02,1.05,0.07,1.57,0.07
		c0.1,0,0.2-0.01,0.3-0.01C146.82,256.89,147.46,256.84,148.1,256.8z M129.96,194.53c3.17-2.01,6.67-3.4,10.37-4.09
		c1.81-0.34,3.67-0.53,5.56-0.53c7.8,0,15.18,2.99,20.79,8.42c5.74,5.55,8.97,13.01,9.1,21c0.13,7.99-2.86,15.54-8.41,21.28
		c-5.68,5.87-13.32,9.11-21.49,9.11c-7.8,0-15.19-2.99-20.79-8.42c-11.85-11.47-12.16-30.43-0.69-42.28
		C126.09,197.27,127.96,195.79,129.96,194.53z"/>
</g>
</svg>
