<?xml version="1.0" encoding="UTF-8" standalone="no"?>
<svg
   viewBox="0 0 144 144"
   version="1.1"
   id="svg31"
   sodipodi:docname="Git-logo.svg"
   width="1.5in"
   height="1.5in"
   inkscape:version="1.1 (c68e22c387, 2021-05-23)"
   xmlns:inkscape="http://www.inkscape.org/namespaces/inkscape"
   xmlns:sodipodi="http://sodipodi.sourceforge.net/DTD/sodipodi-0.dtd"
   xmlns="http://www.w3.org/2000/svg"
   xmlns:svg="http://www.w3.org/2000/svg">
  <defs
     id="defs35" />
  <sodipodi:namedview
     id="namedview33"
     pagecolor="#ffffff"
     bordercolor="#000000"
     borderopacity="1.0"
     inkscape:pageshadow="2"
     inkscape:pageopacity="0.0"
     inkscape:pagecheckerboard="true"
     showgrid="false"
     inkscape:document-units="in"
     units="in"
     objecttolerance="10000"
     inkscape:snap-path-clip="true"
     inkscape:snap-path-mask="true"
     guidetolerance="10000"
     inkscape:snap-perpendicular="true"
     inkscape:snap-tangential="true"
     inkscape:zoom="4.1507913"
     inkscape:cx="102.51057"
     inkscape:cy="82.032551"
     inkscape:window-width="1920"
     inkscape:window-height="1009"
     inkscape:window-x="-8"
     inkscape:window-y="-8"
     inkscape:window-maximized="1"
     inkscape:current-layer="svg31" />
  <path
     fill="#FFFFFF"
     d="M 141.19019,65.595267 78.400674,2.8134596 c -3.612748,-3.61602927 -9.477057,-3.61602927 -13.094348,0 L 52.268778,15.85227 68.806483,32.389975 c 3.844618,-1.298075 8.251307,-0.427744 11.314481,2.636036 3.079078,3.082864 3.943198,7.527167 2.612558,11.38466 L 98.672931,62.35008 c 3.856239,-1.328873 8.305459,-0.470331 11.384669,2.614326 4.30495,4.303691 4.30495,11.277371 0,15.582198 -4.30559,4.306216 -11.279273,4.306216 -15.587255,0 -3.236983,-3.239507 -4.037614,-7.99558 -2.398106,-11.98384 l -14.865254,-14.865253 -0.0013,39.117692 c 1.049542,0.519558 2.040012,1.213001 2.91461,2.083812 4.303691,4.303186 4.303691,11.275605 0,15.585985 -4.304953,4.30306 -11.28179,4.30306 -15.582199,0 -4.304322,-4.31 -4.304322,-11.282421 0,-15.585985 1.063742,-1.061849 2.294604,-1.865573 3.607951,-2.404291 V 53.01351 c -1.313941,-0.536447 -2.54335,-1.334175 -3.60867,-2.404544 -3.260334,-3.257809 -4.045565,-8.042913 -2.373493,-12.046573 L 45.860954,22.256939 2.8114227,65.305207 c -3.61716526,3.618807 -3.61716526,9.483116 0,13.099397 L 65.597143,141.18654 c 3.614767,3.61603 9.477057,3.61603 13.096873,0 L 141.18943,78.701228 c 3.61603,-3.617797 3.61603,-9.483873 0,-13.100659"
     id="path29"
     style="stroke-width:1"/>
</svg>
